<svg width="591" height="82" viewBox="0 0 591 82" fill="none" xmlns="http://www.w3.org/2000/svg">
<path d="M128.871 46.2102C137.216 46.2102 143.981 39.8733 143.981 32.0564C143.981 24.2394 137.216 17.9025 128.871 17.9025C120.525 17.9025 113.76 24.2394 113.76 32.0564C113.76 39.8733 120.525 46.2102 128.871 46.2102Z" fill="#DCE034"/>
<path d="M15.1106 81.7524C23.4559 81.7524 30.2211 75.4154 30.2211 67.5985C30.2211 59.7815 23.4559 53.4446 15.1106 53.4446C6.76523 53.4446 0 59.7815 0 67.5985C0 75.4154 6.76523 81.7524 15.1106 81.7524Z" fill="#DCE034"/>
<path d="M90.93 53.4435C78.339 53.4435 68.0959 43.8489 68.0959 32.0564C68.0959 24.253 61.3161 17.9025 52.9853 17.9025C44.6545 17.9025 37.8748 24.253 37.8748 32.0564C37.8748 39.8597 44.6545 46.2102 52.9853 46.2102C65.5763 46.2102 75.8195 55.8049 75.8195 67.5987C75.8195 75.4021 82.5992 81.7526 90.93 81.7526C99.2608 81.7526 106.041 75.4021 106.041 67.5987C106.041 59.7953 99.2608 53.4435 90.93 53.4435Z" fill="#DCE034"/>
<path d="M178.127 79.1243V23.506H188.77L189.89 31.6903C193.587 25.9189 201.095 21.8254 209.943 21.8254C222.603 21.8254 230.894 29.8012 230.894 42.2887V79.123H217.673V42.9179C217.673 36.727 213.305 32.6348 205.91 32.6348C197.284 32.6348 191.456 38.1965 191.345 45.4376V79.123H178.126L178.127 79.1243Z" fill="#DCE034"/>
<path d="M238.292 7.97567C238.292 3.46275 241.989 -0.00012207 246.808 -0.00012207C251.738 -0.00012207 255.325 3.46275 255.325 7.97567C255.325 12.4886 251.739 16.0557 246.808 16.0557C241.991 16.0557 238.292 12.4886 238.292 7.97567Z" fill="#DCE034"/>
<path d="M253.417 23.5067L240.198 23.5067V79.125H253.417V23.5067Z" fill="#DCE034"/>
<path d="M263.502 79.1245V23.5062H274.145L275.154 31.2723C278.851 25.8161 286.133 21.8269 294.984 21.8269C303.5 21.8269 309.997 25.8148 313.132 32.2168C316.494 26.3398 324.113 21.8269 333.524 21.8269C345.959 21.8269 353.915 30.118 353.915 42.0804V79.1245H340.581V42.7109C340.581 36.5187 336.549 32.5321 330.165 32.5321C321.089 32.5321 315.376 38.0938 315.263 45.439V79.1245H302.041V42.7109C302.041 36.5187 298.009 32.5321 291.625 32.5321C282.55 32.5321 276.836 38.0938 276.723 45.439V79.1245H263.502Z" fill="#DCE034"/>
<path d="M375.322 69.2611L374.09 79.1259H363.447V0.419312L376.666 0.419312V30.7474C380.924 25.2912 387.983 21.8271 396.384 21.8271C412.07 21.8271 423.161 33.7908 423.161 51.0009C423.161 68.5263 412.069 80.6997 396.273 80.6997C386.862 80.6997 379.019 76.2923 375.322 69.2611ZM409.606 51.0009C409.606 39.9817 402.995 32.3212 393.36 32.3212C383.612 32.3212 376.666 39.8762 376.666 50.6856C376.666 62.1243 383.612 70.2056 393.36 70.2056C402.995 70.2056 409.606 62.3353 409.606 51.0009Z" fill="#DCE034"/>
<path d="M426.974 50.791C426.974 32.6363 440.082 21.8269 457.446 21.8269C476.605 21.8269 487.807 34.4199 487.807 50.791C487.807 69.5762 475.147 80.6995 457.446 80.6995C438.178 80.6995 426.974 68.0011 426.974 50.791ZM474.364 50.791C474.364 39.7718 467.753 32.4266 457.446 32.4266C447.138 32.4266 440.418 39.7718 440.418 50.791C440.418 62.9644 447.7 70.0999 457.446 70.0999C468.091 70.0999 474.364 61.9144 474.364 50.791Z" fill="#DCE034"/>
<path d="M494.76 79.1249V23.5066H505.403L506.973 34.4203C510.781 26.8653 517.727 22.8761 527.587 22.8761L529.828 22.8761V34.944H527.587C515.263 34.944 507.98 41.1363 507.98 51.6304V79.1249H494.761H494.76Z" fill="#DCE034"/>
<path d="M530.39 51.0007C530.39 33.7906 541.706 21.8269 557.5 21.8269C566.802 21.8269 574.532 25.9203 578.34 32.2168L579.461 23.5075L590.104 23.5075V79.1245H576.996V71.5695C573.185 77.2367 566.465 80.6995 557.948 80.6995C541.927 80.6995 530.388 68.5261 530.388 51.0007H530.39ZM576.996 50.8952C576.996 39.876 570.273 32.2155 560.64 32.2155C550.78 32.2155 543.945 39.9816 543.945 51.1049C543.945 62.3339 550.667 70.2041 560.413 70.2041C570.159 70.2041 576.996 62.2283 576.996 50.8952Z" fill="#DCE034"/>
</svg>
