<svg width="1200" height="329" viewBox="0 0 1200 329" fill="none" xmlns="http://www.w3.org/2000/svg">
<path d="M761.34 -41.1161C753.445 -37.6124 745.057 -35.4226 735.682 -35.4226C735.189 -35.4226 734.202 -35.4226 733.708 -35.4226C689.794 -34.1087 654.269 -2.13747 654.269 37.2791C654.269 50.418 648.348 62.6809 638.479 71.4402C628.611 80.1994 614.795 85.8929 599.993 85.8929C569.894 85.8929 545.717 64.4328 545.717 37.7171C545.717 -2.5754 508.711 -34.9846 463.81 -34.9846C433.712 -34.9846 409.534 -56.4448 409.534 -83.1604C409.534 -101.555 421.376 -117.759 438.153 -125.643C446.047 -129.146 454.435 -131.336 463.81 -131.336C493.908 -131.336 518.086 -109.876 518.086 -83.1604C518.086 -81.8466 518.086 -80.5327 518.086 -79.2188C520.553 -41.554 555.092 -11.3346 598.019 -10.4587C599.006 -10.4587 599.499 -10.4587 600.486 -10.4587C644.4 -10.4587 679.926 -41.1161 682.393 -79.2188C682.393 -80.5327 682.393 -81.8466 682.393 -83.1604C682.393 -101.555 694.235 -117.759 711.011 -125.643C718.906 -129.146 727.294 -131.336 736.669 -131.336C766.767 -131.336 790.945 -109.876 790.945 -83.1604C790.451 -65.204 778.609 -48.9994 761.34 -41.1161Z" fill="#F5F5F3"/>
<path d="M872.359 85.8929C826.965 85.8929 789.958 118.74 789.958 158.595C789.958 198.011 825.484 230.42 869.892 231.296C870.385 231.296 871.372 231.296 871.865 231.296C899.99 231.296 923.181 250.129 925.648 274.655C925.648 276.406 926.141 278.158 926.141 279.91C926.141 306.626 901.964 328.086 871.865 328.086C843.741 328.086 820.55 309.254 818.083 284.728C818.083 282.976 817.59 281.224 817.59 279.472C817.59 239.618 780.584 207.208 735.683 207.208C705.584 207.208 681.407 185.748 681.407 159.033C681.407 132.317 705.584 110.857 735.683 110.857C781.077 110.857 817.59 78.4476 817.59 38.1551V37.7171C817.59 11.0015 841.767 -10.4587 871.865 -10.4587C886.668 -10.4587 900.484 -5.20316 910.352 3.55609C920.22 12.3153 926.141 24.5783 926.141 37.7171C926.635 63.9949 902.457 85.8929 872.359 85.8929Z" fill="#F5F5F3"/>
<path d="M1144.72 85.8929C1099.33 85.8929 1062.82 118.74 1062.82 158.595C1062.82 185.31 1038.64 206.77 1008.54 206.77C978.443 206.77 954.265 185.31 954.265 158.595C954.265 131.879 978.443 110.419 1008.54 110.419C1008.54 110.419 1008.54 110.419 1009.03 110.419C1054.43 110.419 1090.94 77.5716 1090.94 37.7171C1090.94 11.0014 1115.12 -10.4588 1145.22 -10.4588C1175.32 -10.4588 1199.49 11.0014 1199.49 37.7171C1199.49 64.4328 1174.82 85.8929 1144.72 85.8929Z" fill="#F5F5F3"/>
<path d="M463.317 109.981C493.415 109.981 517.593 131.441 517.593 158.157C517.593 164.726 516.112 171.296 513.152 176.989C504.764 194.508 485.521 206.77 463.317 206.77C417.923 206.77 381.41 239.618 381.41 279.472C381.41 306.188 357.232 327.648 327.134 327.648C297.036 327.648 272.858 306.188 272.858 279.472C272.858 252.756 297.036 231.296 327.134 231.296C372.035 231.296 408.548 199.325 409.041 159.471C409.041 159.033 409.041 159.033 409.041 158.595C409.041 118.302 372.035 85.8929 327.134 85.8929C297.036 85.8929 272.858 64.4328 272.858 37.7171C272.858 11.0014 297.036 -10.4587 327.134 -10.4587C357.232 -10.4587 381.41 11.0014 381.41 37.7171C381.41 77.1337 416.936 109.543 461.343 110.419C461.837 110.419 462.823 109.981 463.317 109.981Z" fill="#F5F5F3"/>
<path d="M190.458 206.77C160.36 206.77 136.183 185.31 136.183 158.595C136.183 118.302 99.1765 85.8929 54.2757 85.8929C24.1774 85.8929 0 64.4328 0 37.7171C0 11.0014 24.1774 -10.4588 54.2757 -10.4588C84.3741 -10.4588 108.551 11.0014 108.551 37.7171C108.551 78.0096 145.558 110.419 190.458 110.419C220.557 110.419 244.734 131.879 244.734 158.595C244.734 184.872 220.557 206.77 190.458 206.77Z" fill="#F5F5F3"/>
<path d="M599.5 231.296C629.475 231.296 653.776 252.865 653.776 279.472C653.776 306.079 629.475 327.648 599.5 327.648C569.524 327.648 545.224 306.079 545.224 279.472C545.224 252.865 569.524 231.296 599.5 231.296Z" fill="#F5F5F3"/>
</svg>
