<svg width="158" height="70" viewBox="0 0 158 70" fill="none" xmlns="http://www.w3.org/2000/svg">
<path d="M141.283 31.0342C150.432 31.0342 157.849 24.087 157.849 15.5171C157.849 6.94725 150.432 0 141.283 0C132.134 0 124.717 6.94725 124.717 15.5171C124.717 24.087 132.134 31.0342 141.283 31.0342Z" fill="#5221FA"/>
<path d="M16.5659 69.9996C25.7151 69.9996 33.1319 63.0523 33.1319 54.4825C33.1319 45.9126 25.7151 38.9653 16.5659 38.9653C7.41683 38.9653 0 45.9126 0 54.4825C0 63.0523 7.41683 69.9996 16.5659 69.9996Z" fill="#5221FA"/>
<path d="M99.688 38.9642C85.8843 38.9642 74.6546 28.4455 74.6546 15.5171C74.6546 6.96218 67.2218 0 58.0887 0C48.9555 0 41.5227 6.96218 41.5227 15.5171C41.5227 24.0721 48.9555 31.0342 58.0887 31.0342C71.8924 31.0342 83.1221 41.553 83.1221 54.4827C83.1221 63.0377 90.5548 69.9999 99.688 69.9999C108.821 69.9999 116.254 63.0377 116.254 54.4827C116.254 45.9278 108.821 38.9642 99.688 38.9642Z" fill="#5221FA"/>
</svg>
