<svg width="2374" height="2819" viewBox="0 0 2374 2819" fill="none" xmlns="http://www.w3.org/2000/svg">
<path d="M2352.87 1421.22C2339.41 1351.06 2321.15 1295.32 2306.74 1256.88C2288.48 1209.78 2275.98 1189.6 2267.33 1176.15C2247.15 1146.35 2222.16 1122.33 2183.72 1095.42C2119.33 1049.29 2024.18 982.013 1902.13 983.935C1840.62 984.896 1789.68 1004.12 1783.92 1006.04C1759.89 1015.65 1739.71 1026.22 1726.25 1033.91C1732.98 956.064 1727.22 893.595 1720.49 851.308C1709.92 779.229 1688.77 713.876 1677.24 678.317C1674.36 668.707 1671.47 661.018 1670.51 656.213C1698.38 582.211 1713.76 518.781 1724.33 469.766C1738.75 399.609 1751.24 335.218 1743.55 250.644C1738.75 196.825 1728.18 153.577 1718.57 123.784C1716.64 110.329 1710.88 78.614 1686.85 50.7431C1684.93 47.86 1667.63 27.6776 1640.72 16.1448C1615.73 4.61208 1583.06 0.767914 1473.49 34.4051C1394.69 58.4317 1354.32 69.9644 1301.46 98.7963C1248.61 127.628 1208.24 159.343 1179.41 184.331C1149.62 167.993 1108.29 148.771 1054.47 133.394C1033.33 127.628 943.949 103.602 824.777 113.212C741.165 119.94 672.93 142.044 621.993 163.187C580.668 117.056 538.381 93.9909 512.432 83.4192C473.989 66.1201 439.391 51.7041 407.676 66.1201C371.155 83.4192 356.74 130.511 348.09 160.304C341.363 182.409 340.402 199.708 338.48 221.812C333.674 283.32 329.83 334.257 326.947 372.699C291.388 408.258 234.685 472.65 196.242 568.756C160.683 657.174 153.955 735.981 152.994 784.995C137.617 798.45 119.357 817.671 100.136 841.698C87.642 858.036 66.4991 885.907 45.3557 925.31C22.2902 968.558 10.7569 990.662 8.83482 1018.53C5.95163 1062.74 22.2897 1117.52 47.2773 1120.41C51.1216 1120.41 68.4212 1122.33 93.4088 1080.04C93.4088 1083.89 88.6033 1138.67 128.007 1166.54C141.462 1176.15 154.916 1179.03 164.527 1179.99C174.138 1199.21 185.67 1219.4 202.97 1241.5C240.451 1290.51 283.699 1321.27 314.453 1339.53C300.998 1349.14 279.855 1364.52 255.828 1385.66C218.347 1419.3 199.126 1445.24 86.6813 1613.43C58.8104 1655.72 39.5891 1684.55 27.0952 1729.72C22.2899 1748.94 14.6016 1776.81 19.4069 1812.37C26.1343 1870.03 57.8491 1909.44 73.2261 1926.74C74.1872 1943.08 77.0704 1967.1 87.6421 1994.01C94.3695 2011.31 101.097 2021.88 111.669 2039.18C128.007 2066.09 145.306 2093 174.138 2120.87C186.632 2133.37 205.853 2148.74 232.763 2164.12C228.919 2253.5 240.451 2323.66 251.023 2370.75C265.439 2435.14 278.894 2454.36 285.621 2463.01C327.908 2516.83 397.104 2527.4 449.963 2536.05C480.717 2540.86 522.042 2544.7 571.057 2538.93C551.835 2577.38 555.68 2618.7 578.745 2641.77C597.006 2660.03 623.915 2660.99 630.642 2661.95C664.28 2662.91 689.267 2644.65 714.255 2625.43C750.775 2597.56 773.841 2564.88 790.179 2539.9C799.79 2526.44 803.634 2518.75 821.894 2492.8C836.31 2472.62 847.843 2455.32 856.492 2444.75C933.377 2509.14 991.041 2564.88 1030.44 2604.29C1057.35 2631.2 1097.72 2673.48 1160.19 2724.42C1214.01 2768.63 1248.61 2789.77 1293.78 2801.3C1337.98 2812.84 1373.54 2808.99 1383.15 2807.07C1417.75 2803.23 1442.74 2791.69 1451.39 2787.85C1473.49 2777.28 1490.79 2764.78 1502.33 2755.17C1513.86 2734.03 1530.2 2702.31 1538.85 2660.03C1549.42 2609.09 1546.54 2568.73 1540.77 2525.48C1534.04 2469.74 1522.51 2427.45 1516.74 2409.19C1515.78 2405.35 1514.82 2401.5 1512.9 2398.62C1497.52 2350.57 1486.95 2328.46 1464.84 2270.8C1461.96 2263.11 1458.12 2252.54 1452.35 2238.12C1493.68 2201.6 1555.18 2137.21 1601.32 2040.14C1634.95 1969.02 1650.33 1903.67 1656.1 1856.58C1666.67 1835.44 1678.2 1809.49 1685.89 1778.73C1700.31 1726.84 1701.27 1680.71 1699.34 1648.03C1704.15 1621.12 1717.6 1566.34 1762.77 1516.36C1778.15 1499.06 1811.79 1462.54 1868.49 1444.28C1906.93 1431.79 1939.61 1432.75 1959.79 1434.67C1966.52 1441.4 1976.13 1452.93 1984.78 1467.35C2008.81 1504.83 2011.69 1534.62 2020.34 1563.46C2037.64 1623.04 2074.16 1662.45 2084.73 1673.98C2109.72 1700.89 2156.81 1752.79 2220.24 1746.06C2283.67 1739.33 2320.19 1676.86 2325 1667.25C2333.65 1649.95 2342.3 1630.73 2349.98 1607.66C2374.01 1527.9 2363.44 1460.62 2352.87 1421.22ZM1416.79 1280.9C1407.18 1275.14 1398.53 1269.37 1388.92 1263.6C1392.77 1245.34 1396.61 1226.12 1400.45 1207.86C1398.53 1200.17 1396.61 1191.52 1395.65 1182.88C1394.69 1176.15 1394.69 1170.38 1393.73 1164.61C1411.03 1147.32 1428.32 1130.98 1445.62 1113.68C1458.12 1131.94 1471.57 1150.2 1484.07 1168.46C1461.96 1205.94 1438.9 1243.42 1416.79 1280.9Z" fill="#EFEEEB"/>
<path d="M398.061 1582.68C373.074 1579.79 329.826 1577.87 278.89 1592.29C257.747 1598.05 178.94 1624 122.237 1701.85C114.548 1712.42 85.7164 1753.75 72.2615 1815.25C68.4172 1831.59 62.6505 1866.19 66.4948 1910.4C74.1833 1990.17 109.743 2045.91 122.237 2064.17C157.796 2115.11 200.083 2143.94 225.07 2158.35C231.798 2127.6 240.447 2080.51 251.019 2022.84C265.435 1939.23 261.591 1945 268.318 1915.2C281.773 1854.66 296.189 1829.67 350.008 1698C362.502 1673.02 378.84 1632.65 398.061 1582.68Z" fill="#EAEC85"/>
<path d="M146.266 1850.81C155.877 1753.74 190.475 1679.74 246.216 1608.62C212.579 1624 164.526 1652.83 126.084 1704.73C118.395 1715.3 89.563 1756.63 76.1082 1818.13C72.2639 1834.47 66.4978 1869.07 70.342 1913.28C78.0305 1993.05 113.59 2048.79 126.084 2067.05C161.643 2117.99 203.93 2146.82 228.917 2161.23C232.762 2142.01 238.528 2116.06 244.294 2085.31C178.942 2019 135.695 1952.68 146.266 1850.81Z" fill="#DCE033"/>
<path d="M244.294 1743.17C236.605 1762.39 205.852 1838.32 233.722 1922.89C240.45 1944.03 250.061 1961.33 257.749 1972.87C263.515 1951.72 271.204 1920.97 282.736 1884.45C301.958 1821.02 320.218 1758.55 352.895 1684.55C363.466 1659.56 379.804 1625.92 400.948 1586.52C378.843 1595.17 286.581 1638.42 244.294 1743.17Z" fill="#DCE033"/>
<path d="M609.495 1698.96C603.728 1713.38 568.169 1815.25 626.794 1911.36C654.665 1957.49 693.107 1983.44 714.251 1994.97C738.277 2008.43 781.525 2028.61 840.15 2030.53C863.215 2031.49 954.517 2034.38 1030.44 1967.1C1041.01 1958.45 1137.12 1870.03 1115.97 1742.21C1100.6 1650.91 1032.36 1574.99 939.14 1547.12C916.074 1538.47 852.644 1519.25 778.642 1541.35C656.587 1576.91 612.378 1690.32 609.495 1698.96Z" fill="#DCE033"/>
<path d="M1115.02 1743.17C1099.64 1651.87 1031.4 1575.95 938.181 1548.08C920.882 1541.35 880.517 1528.86 830.542 1532.7C944.908 1582.68 1029.48 1698.96 1028.52 1823.9C1027.56 1889.25 1016.99 1945 992.962 1994.01C1005.46 1986.32 1016.99 1978.63 1028.52 1968.06C1040.05 1959.41 1137.12 1870.99 1115.02 1743.17Z" fill="#EAEC85"/>
<path d="M1953.07 1431.79C1928.08 1425.06 1895.4 1418.33 1856 1418.33C1825.24 1418.33 1804.1 1423.14 1798.33 1412.57C1792.57 1402.95 1806.98 1388.54 1833.89 1352.02C1854.08 1324.15 1867.53 1294.35 1896.36 1235.73C1907.9 1212.66 1916.55 1192.48 1922.31 1179.03C1908.86 1188.64 1881.95 1204.98 1843.5 1210.74C1801.22 1216.51 1767.58 1205.94 1752.2 1200.17C1764.7 1192.48 1791.61 1171.34 1806.98 1134.82C1832.93 1073.31 1804.1 1015.65 1799.3 1007C1778.15 1013.72 1756.05 1020.45 1734.9 1027.18C1732.98 1034.87 1728.18 1046.4 1721.45 1059.86C1710.88 1079.08 1693.58 1112.71 1665.71 1119.44C1637.84 1126.17 1602.28 1104.06 1580.17 1065.62C1577.29 1103.1 1594.59 1137.7 1625.34 1155.96C1658.98 1176.14 1693.58 1165.57 1700.31 1163.65C1696.46 1175.18 1681.08 1218.43 1635.91 1247.26C1593.63 1274.17 1551.34 1272.25 1538.85 1271.29C1554.22 1280.9 1576.33 1292.43 1605.16 1298.2C1665.71 1309.73 1715.68 1288.59 1733.94 1279.94C1732.98 1286.67 1727.22 1321.26 1697.42 1345.29C1664.75 1371.24 1628.23 1367.4 1621.5 1366.43C1640.72 1378.93 1669.55 1393.34 1707.99 1398.15C1718.57 1399.11 1727.22 1399.11 1736.83 1399.11C1734.9 1417.37 1728.18 1442.36 1710.88 1462.54C1688.77 1487.53 1660.9 1491.37 1661.86 1500.98C1662.82 1508.67 1680.12 1517.32 1757.01 1524.05C1773.35 1505.79 1804.1 1476.96 1850.23 1455.81C1890.6 1438.51 1929.04 1433.71 1953.07 1431.79Z" fill="#DCD2FE"/>
<path d="M2267.33 1177.11C2256.76 1199.21 2245.22 1233.81 2244.26 1277.06C2244.26 1295.32 2245.22 1312.62 2248.11 1326.07C2220.24 1313.58 2142.39 1282.83 2060.7 1311.66C2043.4 1317.42 2028.99 1326.07 2015.53 1333.76C2058.78 1348.18 2082.8 1382.78 2077.04 1408.72C2070.31 1437.56 2027.06 1450.05 2017.45 1452.93C2002.08 1456.78 1989.58 1456.78 1980.93 1455.82C1985.74 1467.35 1993.43 1484.65 2001.11 1505.79C2015.53 1543.27 2018.41 1558.65 2029.95 1587.48C2035.71 1602.86 2045.32 1624 2059.74 1649.95C2072.23 1643.22 2090.49 1631.69 2103.95 1610.55C2127.97 1572.11 2123.17 1518.29 2093.38 1473.12C2109.71 1479.84 2132.78 1492.34 2152.96 1514.44C2178.91 1543.27 2182.76 1569.22 2194.29 1568.26C2206.78 1567.3 2217.35 1527.9 2214.47 1494.26C2210.63 1449.09 2183.72 1418.34 2170.26 1404.88C2192.37 1411.61 2220.24 1424.1 2242.34 1448.13C2267.33 1476 2273.1 1505.79 2282.71 1503.87C2293.28 1501.95 2294.24 1461.58 2295.2 1443.32C2296.16 1417.37 2293.28 1397.19 2291.36 1382.78C2309.62 1386.62 2327.88 1389.5 2346.14 1393.35C2343.25 1367.4 2337.49 1336.64 2326.91 1303.97C2308.65 1250.15 2286.55 1207.86 2267.33 1177.11Z" fill="#DCD2FE"/>
<path d="M407.672 420.754C291.383 567.796 235.642 803.257 291.384 968.56C394.217 1269.37 868.021 1334.72 847.839 1404.88C837.267 1441.4 704.64 1432.75 628.716 1427.95C537.415 1422.18 401.906 1412.57 280.812 1316.46C222.187 1270.33 186.627 1219.4 167.406 1185.76C157.796 1183.84 142.419 1179.03 128.003 1166.54C98.2099 1141.55 94.3659 1105.99 93.4048 1097.34C90.5216 1101.19 77.0663 1120.41 56.884 1120.41C38.6238 1121.37 25.1691 1106.95 22.2859 1104.07C-15.1955 1063.7 29.0134 953.183 65.5338 891.675C81.8718 863.804 109.743 824.4 153.952 785.958C153.952 737.905 160.679 676.397 182.784 610.083C208.732 531.276 246.213 477.456 268.318 445.741C287.539 418.832 302.916 396.727 327.904 372.701C407.672 296.777 517.233 260.256 529.727 278.517C541.26 295.816 468.219 344.83 407.672 420.754Z" fill="#DCD2FE"/>
<path d="M520.117 1408.73C551.832 1414.49 683.498 1436.6 855.528 1411.61C1052.55 1383.74 1191.9 1309.74 1247.64 1278.02C1309.15 1242.46 1357.2 1206.9 1391.8 1179.03C1394.68 1184.8 1407.18 1213.63 1395.65 1248.23C1383.15 1282.83 1355.28 1297.24 1349.51 1300.13C1346.63 1309.74 1339.9 1327.04 1326.45 1342.41C1305.31 1366.44 1279.36 1375.09 1268.78 1377.97C1264.94 1388.54 1257.25 1404.88 1241.88 1419.3C1207.28 1451.97 1164.03 1450.05 1154.42 1449.09C1142.89 1460.62 1116.94 1484.65 1074.65 1497.14C1031.4 1509.64 993.921 1502.91 978.544 1499.07C957.4 1507.72 934.335 1516.37 908.386 1524.05C830.54 1545.2 761.344 1543.27 711.368 1537.51C683.498 1529.82 654.666 1522.13 626.795 1514.44C611.418 1521.17 554.715 1542.31 489.363 1519.25C425.932 1496.18 395.178 1445.25 383.646 1426.03C369.23 1402 362.502 1378.93 358.658 1363.56C398.062 1378.93 452.842 1396.23 520.117 1408.73Z" fill="#9779FC"/>
<path d="M350.97 737.903C354.815 731.176 358.659 728.293 364.425 723.487C374.036 716.76 389.413 708.111 436.505 707.149C470.142 706.188 494.169 706.188 522.039 717.721C542.222 725.41 552.793 730.215 555.677 739.826C567.209 772.502 490.324 823.438 475.909 832.088C450.921 848.426 437.466 851.309 424.972 849.387C405.751 846.503 394.218 834.01 382.685 822.477C379.802 819.594 333.671 770.58 350.97 737.903Z" fill="#9779FC"/>
<path d="M394.218 116.097C409.595 109.369 439.388 140.123 454.765 164.15C465.337 181.449 470.143 198.748 473.026 209.32C465.337 210.281 453.804 212.203 441.31 217.969C430.738 222.775 423.05 228.541 417.284 232.385C421.128 238.152 427.856 243.918 437.466 249.684C463.415 264.1 489.364 254.49 490.325 259.295C491.286 264.1 457.648 278.516 417.284 283.322C394.218 286.205 382.685 288.127 375.958 281.399C363.464 269.867 375.958 248.723 382.686 198.748C390.374 143.006 382.686 120.902 394.218 116.097Z" fill="#9779FC"/>
<path d="M1399.49 275.629C1395.65 272.746 1414.87 242.953 1452.35 197.783C1520.59 116.093 1556.14 98.7939 1579.21 90.1443C1600.35 82.4558 1620.54 74.7674 1636.87 84.378C1665.71 101.677 1663.78 162.224 1649.37 201.628C1619.57 282.357 1526.35 317.916 1517.7 308.306C1511.94 301.578 1544.61 274.668 1535 251.603C1528.27 236.226 1508.09 230.46 1493.68 228.537C1442.74 224.693 1404.3 279.474 1399.49 275.629Z" fill="#9779FC"/>
<path d="M357.699 1364.51C362.504 1384.69 373.076 1415.45 396.141 1447.16C412.479 1470.23 430.739 1486.57 445.155 1498.1C429.778 1525.97 414.401 1553.84 399.024 1581.71C392.297 1582.67 381.725 1584.6 369.231 1586.52C283.697 1602.86 225.072 1614.39 175.097 1652.83C109.745 1701.85 87.64 1772.96 84.7569 1782.57C61.6913 1860.42 86.6792 1920.97 74.1854 1924.81C62.6526 1928.66 29.0151 1882.53 20.3655 1826.78C9.79384 1762.39 36.7039 1710.5 74.1854 1635.53C105.9 1573.06 139.537 1527.89 162.603 1498.1C193.357 1457.74 220.267 1428.9 232.761 1415.45C262.554 1383.73 291.385 1358.75 315.412 1337.6C328.867 1348.17 343.283 1355.86 357.699 1364.51Z" fill="#BAA5FD"/>
<path d="M502.816 1525.01C559.518 1539.43 606.61 1523.09 625.832 1515.4C671.002 1525.97 715.211 1537.51 760.38 1548.08C738.276 1556.73 686.379 1578.83 645.053 1633.61C602.766 1689.35 596.039 1746.06 595.078 1760.47C594.117 1771.04 591.233 1814.29 609.493 1867.15C636.403 1944.03 691.184 1987.28 715.21 2003.62C690.223 2026.69 656.586 2049.75 617.182 2046.87C543.181 2041.1 522.998 1945.96 472.062 1946.92C407.67 1947.88 341.357 2101.65 335.591 2238.12C329.824 2376.51 386.527 2482.23 417.281 2530.28C389.41 2526.44 322.136 2512.02 279.849 2455.32C267.355 2438.02 252.939 2413.03 241.407 2341.91C226.03 2243.89 232.757 2165.08 234.679 2138.17C236.601 2117.03 254.862 1935.38 329.825 1738.37C359.617 1660.52 391.333 1598.05 399.021 1582.68C416.32 1548.08 432.658 1520.21 445.152 1499.06C458.607 1507.71 477.828 1518.28 502.816 1525.01Z" fill="#DCD2FE"/>
<path d="M1282.24 1856.58C1273.59 1839.28 1270.71 1823.9 1268.78 1813.33C1255.33 1802.76 1241.87 1791.23 1228.42 1776.81C1195.74 1742.21 1173.64 1706.65 1160.18 1678.78C1143.85 1648.99 1137.12 1621.12 1134.24 1603.82C1129.43 1574.03 1124.63 1544.23 1140.96 1514.44C1155.38 1487.53 1180.37 1475.04 1192.86 1470.23C1183.25 1464.46 1167.87 1458.7 1149.61 1459.66C1117.9 1461.58 1104.44 1485.61 1075.61 1499.06C1056.39 1507.71 1026.6 1514.44 979.504 1500.99C970.855 1507.71 956.439 1517.32 934.335 1521.17C919.919 1524.05 907.425 1524.05 898.775 1523.09C900.698 1529.82 903.58 1537.51 907.425 1546.15C909.347 1547.12 912.23 1548.08 915.114 1549.04C950.673 1561.53 980.465 1572.1 984.31 1574.03C1042.93 1597.09 1086.18 1673.02 1091.95 1683.59C1100.6 1698 1111.17 1717.22 1116.94 1744.13C1123.66 1773.93 1121.74 1798.91 1118.86 1814.29C1128.47 1828.71 1142.88 1847.93 1166.91 1864.27C1223.61 1904.63 1294.73 1905.59 1304.34 1892.14C1304.34 1888.29 1292.81 1878.68 1282.24 1856.58Z" fill="#DCD2FE"/>
<path d="M1227.46 1776.81C1239.96 1790.27 1258.22 1809.49 1287.05 1829.67C1306.27 1843.12 1335.1 1860.42 1374.5 1873.88C1382.19 1852.73 1386.04 1827.75 1380.27 1802.76C1371.62 1769.12 1345.67 1739.33 1306.27 1695.12C1301.46 1689.35 1284.16 1671.09 1268.79 1641.3C1263.98 1630.73 1222.66 1553.84 1236.11 1491.38C1236.11 1489.45 1238.03 1480.8 1240.92 1468.31C1232.27 1466.39 1217.85 1464.47 1200.55 1467.35C1172.68 1472.15 1155.38 1488.49 1148.65 1495.22C1141.93 1508.67 1132.32 1531.74 1130.39 1560.57C1130.39 1565.38 1129.43 1578.83 1134.24 1601.9C1136.16 1611.51 1144.81 1655.72 1177.49 1708.58C1196.71 1743.17 1216.89 1764.32 1227.46 1776.81Z" fill="#DCD2FE"/>
<path d="M1679.16 45.9368C1676.27 54.5864 1639.75 43.0537 1591.7 48.8201C1507.13 59.3918 1445.62 118.017 1421.59 140.121C1391.8 167.992 1367.77 200.668 1351.43 223.733C1312.99 275.631 1308.19 294.852 1280.31 307.346C1232.26 328.489 1183.25 300.619 1180.36 298.696C1172.68 293.891 1136.15 272.748 1138.08 242.955C1139.04 234.305 1141.92 227.578 1145.77 223.733C1157.3 211.24 1168.83 198.746 1180.36 185.291C1225.53 149.732 1265.9 124.744 1294.73 108.406C1354.32 74.7687 1410.06 57.4696 1521.54 21.9103C1548.45 13.2607 1586.89 1.72792 1629.18 14.2217C1655.13 21.9102 1681.08 38.2483 1679.16 45.9368Z" fill="#DCD2FE"/>
<path d="M1597.47 1980.56C1608.04 1982.48 1615.73 1993.05 1619.58 2001.7C1627.27 1981.52 1634.95 1961.33 1642.64 1941.15C1643.6 1935.39 1643.6 1928.66 1645.53 1922.89C1646.49 1919.05 1647.45 1916.16 1648.41 1913.28C1648.41 1906.55 1648.41 1897.9 1651.29 1888.29C1653.21 1880.61 1656.1 1873.88 1658.02 1869.07C1632.07 1868.11 1612.85 1873.88 1582.1 1884.45C1559.99 1892.14 1539.81 1895.98 1515.78 1895.98C1470.61 1895.98 1417.75 1888.29 1372.58 1871.96C1376.43 1875.8 1397.57 1898.87 1394.69 1933.46C1392.77 1961.33 1376.43 1978.63 1371.62 1983.44C1387 1981.52 1406.22 1978.63 1427.37 1970.95C1466.77 1957.49 1494.64 1935.39 1510.98 1920.97C1510.98 1935.39 1510.02 1962.3 1495.6 1991.13C1476.38 2029.57 1445.63 2049.75 1433.13 2056.48C1482.15 2057.44 1511.94 2043.99 1530.2 2030.53C1560.95 2008.43 1576.33 1977.67 1597.47 1980.56Z" fill="#DCD2FE"/>
<path d="M566.252 2562C561.447 2577.37 559.525 2592.75 563.369 2608.13C564.33 2613.89 568.175 2628.31 579.707 2641.76C582.591 2644.65 596.046 2660.02 617.189 2664.83C622.956 2665.79 642.177 2669.64 672.931 2655.22C734.439 2625.43 796.908 2543.74 808.44 2529.32C818.051 2516.83 826.701 2504.33 836.311 2489.92C844.961 2476.46 852.649 2463.97 860.338 2451.47C848.805 2438.98 810.363 2399.58 749.816 2394.77C695.035 2390.93 646.982 2417.84 647.943 2421.68C648.904 2424.56 665.242 2419.76 695.035 2424.56C705.607 2426.49 718.1 2428.41 731.555 2435.14C749.815 2444.75 777.686 2464.93 774.803 2483.19C773.842 2489.92 768.076 2494.72 751.738 2503.37C711.373 2524.52 668.125 2534.13 615.267 2539.89C603.734 2540.85 595.084 2541.81 589.318 2542.78C586.435 2544.7 582.591 2546.62 579.707 2549.5C572.98 2552.39 569.136 2558.15 566.252 2562Z" fill="#BAA5FD"/>
<path d="M328.867 383.272C323.101 383.272 318.295 378.467 318.295 372.7C322.139 297.738 330.789 221.814 346.166 147.812C352.893 116.097 362.504 83.4206 388.452 65.1604C411.518 49.7834 444.194 47.8612 483.598 61.316C540.301 79.5762 591.237 113.213 630.64 157.422C634.485 161.267 634.485 167.994 629.68 171.838C625.835 175.683 619.108 175.683 615.264 170.877C577.782 129.552 530.69 97.8364 476.87 80.5373C443.233 69.9656 417.285 69.9657 399.024 82.4595C377.881 96.8755 370.193 125.707 365.387 151.656C350.971 224.697 341.361 298.699 338.478 372.7C339.439 379.428 334.633 383.272 328.867 383.272Z" fill="#231F20"/>
<path d="M403.825 113.21C418.241 114.171 426.89 122.82 433.618 129.548C440.345 136.275 447.073 143.964 452.839 152.613C465.333 168.951 474.944 186.25 482.632 205.472L488.399 219.888L472.06 218.927C461.489 217.966 449.956 220.849 440.345 225.654C437.462 226.615 435.54 228.537 433.618 229.498C431.696 231.42 428.813 232.381 427.852 234.304C426.891 235.265 427.851 235.265 426.89 234.304C426.89 234.304 426.891 235.265 427.852 236.226C428.813 237.187 434.579 239.109 440.345 240.07L458.606 241.992L476.866 243.914L486.476 244.875C487.437 245.836 491.282 243.914 498.009 248.719C498.97 249.681 500.893 252.564 501.854 255.447C501.854 258.33 501.853 260.252 500.892 262.174C499.931 264.097 498.97 266.019 496.087 267.941C493.204 269.863 486.476 269.863 483.593 266.98C478.788 264.097 477.827 257.369 481.671 252.564C484.554 247.758 491.282 246.797 496.087 250.642C494.165 248.72 488.398 248.72 486.476 249.681C484.554 250.642 483.593 252.564 482.632 253.525C481.671 254.486 481.671 256.408 481.671 258.33C481.671 260.252 483.593 263.135 483.593 263.135C487.438 266.019 487.438 265.058 485.515 265.058L475.905 264.097L456.684 262.174L437.462 260.252C431.696 259.291 423.046 259.291 414.397 251.603C410.552 247.758 407.669 243.914 406.708 237.187C405.747 230.459 408.63 223.732 412.474 219.888C416.319 216.043 419.202 214.121 422.085 212.199C424.968 210.277 427.851 208.355 431.696 206.433C444.189 199.705 459.567 196.822 473.983 197.783L463.411 211.238C457.645 193.939 448.995 176.64 439.385 161.263C434.579 153.574 428.812 145.886 422.085 139.158C416.319 132.431 409.592 126.665 403.825 125.704C399.981 125.704 397.098 121.859 397.098 118.015C396.137 116.093 399.981 113.21 403.825 113.21Z" fill="#231F20"/>
<path d="M53.0392 1131.94C38.6232 1131.94 24.2073 1124.25 14.5966 1110.79C4.98602 1096.38 2.1026 1079.08 1.14153 1067.54C-5.58591 991.621 35.7397 923.385 37.6618 920.502C64.5716 869.566 100.131 823.435 144.34 782.109C144.34 777.304 144.34 770.576 145.301 763.849C145.301 759.044 151.068 654.288 192.393 556.259C252.94 413.061 379.8 317.916 417.282 291.967C422.087 289.084 427.853 290.045 431.698 294.85C434.581 299.656 433.62 306.383 428.814 309.266C402.866 327.526 271.2 423.633 211.615 564.909C171.25 659.093 166.445 763.849 165.484 764.81C165.484 773.46 164.522 781.148 164.522 786.914V791.72L161.639 794.603C117.43 834.968 81.8709 881.099 55.9222 932.035C54.9612 932.996 15.5578 998.348 21.3242 1066.58C22.2853 1081.96 26.1295 1092.53 30.9348 1100.22C36.7012 1108.87 47.2729 1113.68 54.9614 1112.71C67.4552 1110.79 78.0268 1100.22 81.871 1086.77C82.8321 1081 88.5984 1078.12 94.3647 1079.08C100.131 1080.04 103.014 1085.8 102.053 1091.57C97.2478 1113.68 79.9487 1130.01 58.8053 1132.9C57.8442 1130.97 54.9613 1131.94 53.0392 1131.94Z" fill="#231F20"/>
<path d="M159.718 1194.41C158.757 1194.41 157.796 1194.41 156.835 1194.41C109.743 1179.99 78.9893 1130.98 84.7556 1081.96C85.7167 1076.2 90.5221 1072.35 96.2885 1073.31C102.055 1074.28 105.899 1079.08 104.938 1084.85C100.132 1123.29 126.081 1163.65 162.601 1175.19C168.368 1177.11 171.251 1182.88 169.329 1187.68C168.368 1191.53 164.524 1194.41 159.718 1194.41Z" fill="#231F20"/>
<path d="M556.635 221.809C552.791 221.809 549.908 219.887 547.986 217.004C545.103 212.198 546.064 205.471 550.869 202.588C611.416 163.184 737.315 98.7929 901.657 101.676C999.685 103.598 1098.67 129.547 1186.13 176.639C1190.94 179.522 1192.86 185.289 1189.98 190.094C1187.09 194.899 1181.33 196.821 1176.52 193.938C1091.95 147.807 996.802 122.82 901.657 120.897C743.082 118.014 621.027 180.483 562.402 218.926C560.48 220.848 558.557 221.809 556.635 221.809Z" fill="#231F20"/>
<path d="M1670.51 684.082C1669.54 684.082 1667.62 684.082 1666.66 683.121C1660.89 681.199 1658.97 675.433 1660.89 669.666C1671.47 640.834 1682.04 610.08 1690.69 579.326C1694.53 567.794 1773.34 310.229 1701.26 103.6C1692.61 79.5737 1680.12 50.7418 1656.09 35.3648C1641.67 26.7152 1622.45 21.91 1597.46 21.91C1537.88 20.9489 1480.22 44.0144 1425.43 65.1578C1330.29 101.678 1212.08 147.809 1145.77 241.993C1142.88 246.799 1136.15 247.76 1131.35 244.876C1126.54 241.993 1125.58 235.266 1128.47 230.461C1197.66 130.51 1319.72 84.379 1416.78 45.9365C1470.6 24.7931 1532.11 0.766602 1595.54 0.766602H1596.5C1625.34 0.766602 1648.4 6.53295 1665.7 17.1046C1695.49 36.3259 1709.91 69.002 1719.52 95.9118C1793.52 308.307 1712.79 573.56 1708.95 584.132C1700.3 614.886 1689.73 645.64 1679.16 675.433C1678.19 681.199 1674.35 684.082 1670.51 684.082Z" fill="#231F20"/>
<path d="M1662.82 105.522C1657.05 93.0287 1642.64 85.3402 1628.22 84.3791C1613.8 82.457 1598.43 87.2622 1584.97 94.9507C1571.52 101.678 1558.06 112.25 1545.57 120.9C1533.07 130.51 1520.58 141.082 1508.09 151.654C1484.06 172.797 1461.96 196.824 1442.73 221.811C1422.55 246.799 1405.25 273.708 1390.84 302.54L1372.58 292.93C1379.3 280.436 1387.95 271.786 1397.56 263.137C1407.17 254.487 1416.79 247.76 1427.36 241.032C1437.93 234.305 1449.46 228.538 1461.96 224.694C1474.45 220.85 1486.94 217.006 1501.36 218.928C1515.78 219.889 1530.19 226.616 1539.8 239.11C1549.41 252.565 1549.41 270.825 1543.65 283.319C1537.88 296.774 1527.31 307.346 1515.78 314.073C1504.24 320.801 1492.71 325.606 1481.18 329.45L1475.41 309.268C1495.59 304.462 1517.7 301.579 1539.8 304.462C1550.37 305.424 1561.91 308.307 1572.48 314.073C1583.05 318.878 1593.62 327.528 1598.43 341.944C1602.27 355.399 1599.39 367.893 1593.62 379.425C1587.85 389.997 1579.21 399.608 1568.63 405.374C1546.53 416.907 1518.66 412.102 1500.4 396.725C1496.55 392.88 1495.59 386.153 1499.44 382.309C1503.28 378.464 1510.01 377.503 1513.85 381.348C1526.35 391.919 1545.57 394.802 1559.02 387.114C1565.75 383.27 1571.52 377.503 1575.36 369.815C1579.2 363.087 1580.17 354.438 1578.24 348.671C1576.32 342.905 1570.56 338.1 1563.83 334.255C1556.14 330.411 1547.49 328.489 1538.84 326.567C1520.58 324.645 1501.36 326.567 1483.1 331.372L1477.33 311.19C1499.44 303.501 1520.58 294.852 1527.31 277.553C1531.15 268.903 1531.15 260.254 1526.35 253.526C1521.54 246.799 1512.89 242.954 1503.28 241.993C1484.06 241.032 1460.99 249.682 1442.73 261.215C1424.47 272.747 1404.29 288.124 1394.68 305.424L1376.42 295.813C1408.14 237.188 1451.38 185.291 1501.36 142.043C1513.85 131.471 1527.31 120.9 1540.76 111.289C1554.22 101.678 1567.67 92.0676 1583.05 84.3791C1598.43 76.6906 1615.73 71.8853 1633.99 73.8074C1651.29 75.7295 1669.55 86.3013 1677.23 103.6C1678.19 106.484 1677.23 109.367 1674.35 111.289C1667.62 109.367 1663.78 108.406 1662.82 105.522Z" fill="#231F20"/>
<path d="M1510.98 1192.49C1510.02 1192.49 1510.02 1192.49 1509.05 1192.49C1491.76 1191.52 1481.18 1180.95 1472.53 1171.34C1458.12 1156.93 1447.55 1138.67 1440.82 1118.48C1438.9 1112.72 1441.78 1106.95 1447.55 1105.99C1453.31 1104.07 1459.08 1106.95 1460.04 1112.72C1465.81 1130.02 1474.46 1145.39 1486.95 1157.89C1495.6 1166.54 1502.33 1172.3 1510.02 1172.3C1519.63 1173.26 1527.31 1166.54 1531.16 1162.69C1552.3 1145.39 1565.76 1091.57 1569.6 1065.63L1575.37 1030.07L1588.82 1062.74C1594.59 1077.16 1606.12 1097.34 1624.38 1108.87C1640.72 1119.45 1661.86 1121.37 1676.28 1112.72C1686.85 1106.95 1702.23 1094.46 1710.88 1051.21C1716.64 1025.26 1758.93 787.878 1574.41 542.807C1560.95 524.547 1546.54 507.248 1531.16 489.949C1527.31 486.105 1527.31 479.377 1532.12 475.533C1535.96 471.689 1542.69 471.689 1546.54 476.494C1561.91 493.793 1577.29 512.053 1590.75 530.314C1780.07 783.073 1736.83 1028.14 1731.06 1055.05C1723.37 1094.46 1707.99 1118.48 1685.89 1130.02C1664.75 1141.55 1635.92 1139.63 1612.85 1125.21C1601.32 1118.48 1590.74 1107.91 1582.1 1095.42C1575.37 1122.33 1562.87 1159.81 1541.73 1177.11C1539.81 1182.88 1527.32 1192.49 1510.98 1192.49Z" fill="#231F20"/>
<path d="M690.228 1436.59C544.146 1436.59 450.923 1408.72 408.636 1392.39C351.934 1370.28 267.36 1336.64 200.086 1253.99C131.85 1170.38 102.057 1053.13 118.395 931.075C119.356 925.309 124.162 921.465 129.928 922.426C135.694 923.387 139.538 928.192 138.577 933.958C123.2 1050.25 151.071 1161.73 215.462 1241.5C279.853 1320.31 361.544 1352.02 416.325 1373.16C457.65 1389.5 547.99 1416.41 690.228 1416.41C778.645 1416.41 984.313 1416.41 1203.44 1295.32C1308.19 1237.65 1400.45 1160.77 1479.26 1066.59C1483.1 1061.78 1489.83 1061.78 1493.68 1065.62C1498.48 1069.47 1498.48 1076.2 1494.64 1080.04C1414.87 1175.19 1319.72 1253.99 1213.05 1313.58C991.04 1436.59 780.567 1436.59 690.228 1436.59Z" fill="#231F20"/>
<path d="M268.319 686.002C270.241 695.612 274.085 703.301 274.085 703.301C276.007 706.184 277.929 709.067 279.851 710.989C285.618 717.717 295.229 722.522 304.839 719.639C320.216 715.795 325.021 695.612 325.021 679.274C325.983 663.897 326.943 653.326 325.982 635.065C325.021 621.611 323.099 617.766 321.177 613.922C315.411 604.311 300.995 597.584 290.423 600.467C264.475 607.195 266.396 673.508 268.319 686.002Z" fill="#231F20"/>
<path d="M843.037 580.286C803.634 616.806 808.439 674.47 809.4 685.042C809.4 690.808 811.322 698.496 817.089 704.263C825.738 713.873 842.076 712.912 852.648 705.224C863.22 697.535 868.986 685.042 873.791 673.509C880.518 656.21 886.285 637.949 890.129 618.728C893.973 597.585 893.012 591.819 890.129 587.013C886.285 578.364 877.636 568.753 867.064 568.753C859.375 568.753 852.648 570.675 843.037 580.286Z" fill="#231F20"/>
<path d="M428.816 862.839C424.972 862.839 421.128 861.878 418.245 860.917C399.023 856.111 385.568 840.734 375.958 829.201L358.659 809.019C345.204 794.603 340.398 784.031 337.515 771.538C334.632 758.083 336.554 742.706 343.282 732.134C360.581 700.419 409.595 700.419 452.843 700.419C491.285 700.419 555.677 701.38 567.209 735.017C572.015 750.394 565.287 765.771 562.404 771.538C559.521 777.304 552.794 787.876 525.884 809.019C517.234 815.746 510.506 821.513 498.974 829.201L497.052 830.162C465.337 850.345 447.076 862.839 428.816 862.839ZM440.349 721.562C407.673 721.562 370.191 723.485 359.619 742.706C356.736 748.472 353.853 759.044 355.776 768.654C357.698 777.304 361.542 784.992 372.114 796.525L389.413 816.708C398.062 826.318 408.634 838.812 422.089 842.656C434.582 846.501 448.999 837.851 483.597 815.746L485.519 814.785C496.091 808.058 502.818 802.292 511.468 796.525C527.806 783.07 538.377 772.499 541.261 766.732C543.183 762.888 547.988 752.316 545.105 744.628C538.378 724.446 473.986 723.485 449.96 723.485C448.037 721.562 444.193 721.562 440.349 721.562Z" fill="#231F20"/>
<path d="M236.605 885.903C242.371 903.202 258.71 914.735 276.97 920.501C295.23 925.307 314.451 923.384 332.711 917.618C351.933 911.852 370.193 904.163 385.57 892.63C400.947 881.098 412.48 866.682 416.324 849.382C417.285 843.616 423.051 839.772 428.818 841.694C434.584 842.655 438.428 848.421 436.506 854.188C430.74 877.253 414.402 895.514 396.142 908.007C377.882 920.501 357.699 928.19 337.517 933.956C317.334 939.722 294.269 941.645 272.164 934.917C251.021 928.19 230.839 912.813 224.111 890.708C223.15 886.864 225.073 883.02 227.956 882.059C231.8 881.098 235.644 883.02 236.605 885.903Z" fill="#231F20"/>
<path d="M441.307 847.462C471.1 902.242 525.881 944.529 587.389 957.023C618.143 963.75 650.819 962.789 680.612 954.14C711.366 946.451 740.198 931.074 764.224 910.892C767.108 908.009 772.874 908.008 775.757 911.853C778.641 914.736 778.64 920.502 774.796 923.386C748.847 945.49 718.093 962.789 685.417 971.439C652.741 980.088 617.182 982.01 583.545 975.283C516.27 961.828 456.684 917.619 423.047 858.033C420.164 853.228 422.086 846.501 426.891 843.617C432.657 840.734 438.424 841.695 441.307 847.462Z" fill="#231F20"/>
<path d="M75.1472 1946.92C72.264 1946.92 69.3809 1945.96 67.4588 1943.07C43.4322 1915.2 27.0938 1883.49 18.4443 1850.81C-8.4655 1747.02 50.1597 1653.79 105.901 1563.45C159.721 1476.96 227.956 1399.11 308.685 1331.84C313.491 1327.99 319.257 1328.95 323.101 1332.8C326.946 1336.64 325.985 1343.37 322.14 1347.21C243.333 1412.57 176.059 1489.45 124.161 1574.02C70.3417 1660.52 14.6004 1750.86 38.6269 1846.01C46.3154 1875.8 61.6926 1904.63 83.797 1930.58C87.6413 1935.38 86.6798 1941.15 82.8356 1944.99C79.9524 1945.96 77.0693 1946.92 75.1472 1946.92Z" fill="#231F20"/>
<path d="M545.104 2552.39C514.35 2552.39 482.635 2550.46 448.998 2545.66C392.295 2537.97 312.526 2521.63 270.24 2461.09C250.057 2432.25 242.369 2398.62 236.602 2365.94C210.654 2224.66 219.303 2072.82 260.629 1913.28C294.266 1782.58 351.93 1646.1 435.543 1494.26C438.426 1489.45 444.192 1487.53 449.958 1490.41C454.764 1493.3 456.686 1499.06 453.803 1504.83C371.152 1654.75 314.449 1790.26 280.812 1919.05C239.486 2075.7 231.797 2225.63 256.785 2363.06C262.551 2392.85 269.278 2424.57 287.539 2450.51C325.02 2504.33 399.022 2519.71 451.881 2526.44C584.507 2543.74 691.185 2526.44 769.031 2473.58C773.837 2470.7 780.564 2471.66 783.447 2476.46C786.331 2481.27 785.37 2488 780.564 2490.88C718.095 2531.24 639.288 2552.39 545.104 2552.39Z" fill="#231F20"/>
<path d="M624.874 2674.44C621.991 2674.44 619.108 2674.44 615.263 2674.44C599.886 2672.52 586.431 2667.72 575.859 2659.07C558.56 2645.61 549.911 2622.55 550.872 2597.56C551.833 2576.41 559.522 2555.27 567.21 2537.01C569.132 2531.24 574.898 2529.32 580.665 2531.24C586.431 2533.17 588.354 2538.93 586.431 2544.7C579.704 2562 572.977 2580.26 572.016 2598.52C571.054 2617.74 577.782 2634.08 589.315 2642.73C600.847 2652.34 614.302 2653.3 618.146 2653.3C642.173 2655.22 666.2 2646.57 695.031 2625.43C762.306 2576.42 825.736 2481.27 850.724 2443.79C853.607 2438.98 860.334 2438.02 865.14 2440.91C869.945 2443.79 870.906 2450.52 868.023 2455.32C843.035 2494.72 777.683 2590.83 707.525 2642.73C676.771 2663.87 650.823 2674.44 624.874 2674.44Z" fill="#231F20"/>
<path d="M641.213 2413.99C657.551 2397.66 678.693 2387.08 700.798 2383.24C722.902 2379.4 745.968 2380.36 767.111 2386.12C810.359 2397.66 846.879 2424.57 878.595 2453.4C941.064 2511.06 1002.57 2569.69 1064.08 2628.31C1125.59 2685.97 1186.13 2747.48 1262.06 2782.08C1299.54 2799.38 1340.87 2805.15 1382.19 2801.3C1422.56 2797.46 1463.88 2783.04 1491.75 2755.17C1520.58 2727.3 1529.23 2685.01 1534.04 2643.69C1537.88 2602.36 1535 2560.08 1528.27 2518.75C1521.55 2477.42 1511.93 2436.1 1498.48 2396.69C1491.75 2376.51 1485.03 2357.29 1476.38 2337.11L1451.39 2278.48L1250.53 1810.45C1248.6 1805.64 1250.53 1798.91 1256.29 1796.99C1261.1 1795.07 1267.83 1796.99 1269.75 1802.76L1469.65 2271.76L1494.64 2330.38C1503.29 2349.6 1510.97 2369.79 1517.7 2389.97C1531.16 2430.33 1540.77 2472.62 1547.49 2514.91C1554.22 2557.19 1557.1 2600.44 1553.26 2643.69C1551.34 2654.26 1550.38 2664.83 1548.46 2676.36C1545.57 2686.94 1543.65 2697.51 1540.77 2708.08C1534.04 2729.22 1522.51 2750.37 1506.17 2765.74C1473.49 2797.46 1429.28 2812.84 1386.04 2816.68C1342.79 2821.48 1296.66 2814.76 1257.25 2795.54C1217.85 2777.28 1182.29 2752.29 1148.65 2724.42C1115.98 2696.55 1085.22 2666.75 1054.47 2637.92C992.961 2579.3 931.453 2520.67 869.945 2463.01C839.191 2435.14 804.593 2409.19 765.189 2399.58C745.968 2394.77 724.824 2393.81 705.603 2396.69C686.382 2400.54 667.161 2409.19 653.706 2422.64C650.823 2425.53 646.017 2425.53 643.134 2422.64C640.251 2419.76 638.329 2416.88 641.213 2413.99Z" fill="#231F20"/>
<path d="M1507.13 1907.51C1359.12 1907.51 1258.21 1818.13 1253.41 1814.29C1152.5 1730.68 1121.74 1621.12 1118.86 1569.22C1117.9 1553.84 1116.94 1517.32 1140 1489.45C1141.92 1487.53 1159.22 1468.31 1189.02 1459.66C1242.84 1444.28 1363.93 1491.37 1504.25 1583.64C1509.05 1586.52 1510.01 1593.25 1507.13 1598.05C1504.25 1602.86 1497.52 1603.82 1492.71 1600.93C1359.12 1513.48 1241.88 1465.42 1193.82 1479.84C1168.83 1487.53 1155.38 1502.91 1154.42 1502.91C1136.16 1525.01 1137.12 1553.84 1138.08 1568.26C1140 1616.31 1168.83 1719.15 1264.94 1798.91C1266.86 1799.87 1393.72 1912.32 1565.75 1882.53C1582.09 1879.64 1603.24 1874.84 1621.5 1865.23C1667.63 1839.28 1684.93 1781.61 1684.93 1736.44C1685.89 1640.34 1631.11 1550.96 1579.21 1475.04C1552.3 1436.59 1491.75 1358.75 1383.15 1280.9C1378.35 1278.02 1377.39 1271.29 1381.23 1266.48C1384.11 1261.68 1390.84 1260.72 1395.65 1264.56C1507.13 1344.33 1569.6 1424.1 1596.51 1463.5C1650.33 1542.31 1707.99 1635.53 1706.07 1737.41C1705.11 1788.34 1685.89 1852.73 1632.07 1883.49C1610.92 1895.02 1587.86 1900.79 1569.6 1903.67C1548.45 1905.59 1527.31 1907.51 1507.13 1907.51Z" fill="#231F20"/>
<path d="M548.951 1540.39C529.729 1540.39 507.625 1537.5 485.521 1529.82C418.246 1505.79 386.531 1451.97 374.999 1431.79C363.466 1411.6 353.855 1389.5 349.05 1366.43C348.089 1360.67 350.972 1354.9 356.738 1353.94C362.505 1352.98 368.271 1355.86 369.232 1361.63C374.037 1382.77 382.687 1402.96 393.258 1421.22C403.83 1439.48 432.662 1488.49 493.209 1509.63C550.873 1529.82 602.77 1513.48 622.953 1504.83C627.758 1502.91 634.486 1504.83 636.408 1510.59C638.33 1515.4 636.407 1522.13 630.641 1524.05C615.264 1530.78 585.471 1540.39 548.951 1540.39Z" fill="#231F20"/>
<path d="M723.86 1549.04C703.678 1549.04 680.612 1546.15 657.547 1537.51C578.739 1508.67 547.024 1442.36 539.336 1423.14C537.414 1418.33 540.297 1411.61 545.103 1409.68C549.908 1407.76 556.635 1410.64 558.557 1415.45C563.362 1427.94 592.194 1492.34 664.274 1518.28C737.315 1545.19 800.745 1512.52 812.278 1505.79C817.083 1502.91 823.811 1504.83 826.694 1509.63C829.577 1514.44 827.655 1521.17 822.849 1524.05C810.356 1530.78 772.874 1549.04 723.86 1549.04Z" fill="#231F20"/>
<path d="M886.285 1541.35C885.324 1541.35 883.402 1541.35 882.441 1541.35C817.088 1539.43 757.502 1497.14 726.748 1429.86C724.826 1425.06 726.748 1418.33 731.554 1416.41C736.359 1414.49 743.087 1416.41 745.009 1421.21C772.88 1480.8 825.738 1519.24 883.401 1520.2C922.805 1521.17 953.559 1504.83 972.781 1491.37C977.586 1488.49 983.352 1489.45 987.197 1493.29C990.08 1498.1 989.119 1503.87 985.274 1507.71C963.17 1523.09 929.533 1541.35 886.285 1541.35Z" fill="#231F20"/>
<path d="M1028.52 1514.44C964.125 1514.44 901.656 1478.88 864.174 1420.26C861.291 1415.45 862.253 1408.72 867.058 1405.84C871.863 1402.96 878.591 1403.92 881.474 1408.72C917.033 1464.47 977.58 1497.14 1038.13 1493.3C1091.95 1489.45 1128.47 1459.66 1145.77 1442.36C1149.61 1438.52 1156.34 1438.52 1160.18 1442.36C1164.03 1446.21 1164.03 1452.93 1160.18 1456.78C1140.96 1476 1099.63 1509.64 1039.09 1514.44C1036.2 1514.44 1032.36 1514.44 1028.52 1514.44Z" fill="#231F20"/>
<path d="M1161.14 1459.66C1146.73 1459.66 1134.23 1457.74 1124.62 1455.81C1070.8 1446.2 1030.44 1417.37 1006.41 1394.31C1002.57 1390.46 1002.57 1383.74 1006.41 1379.89C1010.26 1376.05 1016.98 1376.05 1020.83 1379.89C1042.93 1401.03 1079.45 1426.98 1128.47 1435.63C1145.77 1438.52 1168.83 1442.36 1196.7 1433.71C1236.11 1421.22 1258.21 1389.5 1267.82 1372.2C1270.7 1367.4 1276.47 1365.47 1282.24 1368.36C1287.04 1371.24 1288.97 1377.01 1286.08 1382.77C1274.55 1402.96 1249.56 1438.52 1203.43 1453.89C1188.05 1457.74 1173.64 1459.66 1161.14 1459.66Z" fill="#231F20"/>
<path d="M1237.07 1392.38C1197.67 1392.38 1160.19 1375.09 1133.28 1343.37C1129.43 1338.57 1130.39 1332.8 1134.24 1328.95C1139.04 1325.11 1144.81 1326.07 1148.65 1329.92C1175.56 1362.59 1217.85 1377.01 1259.18 1368.36C1321.65 1354.9 1343.75 1294.36 1343.75 1293.4C1345.67 1287.63 1351.44 1284.75 1357.21 1286.67C1362.97 1288.59 1365.85 1294.36 1363.93 1300.12C1362.97 1303.01 1337.98 1373.16 1263.98 1388.54C1255.33 1391.42 1245.72 1392.38 1237.07 1392.38Z" fill="#231F20"/>
<path d="M1316.84 1317.42C1291.85 1317.42 1265.9 1307.81 1245.72 1289.55C1241.87 1285.71 1240.91 1278.98 1244.76 1275.14C1248.6 1271.29 1255.33 1270.33 1259.17 1274.18C1285.12 1297.24 1320.68 1303.01 1349.51 1288.59C1385.07 1270.33 1400.45 1222.28 1383.15 1182.87C1381.23 1178.07 1383.15 1171.34 1388.92 1169.42C1393.72 1167.5 1400.45 1169.42 1402.37 1175.19C1423.51 1225.16 1405.25 1283.79 1360.08 1307.81C1345.67 1313.58 1331.25 1317.42 1316.84 1317.42Z" fill="#231F20"/>
<path d="M850.725 2042.06C782.489 2042.06 716.176 2019 666.201 1972.86C602.77 1914.24 572.978 1824.86 586.432 1740.29C605.654 1623.04 699.838 1554.8 774.801 1532.7C828.62 1516.36 876.673 1521.17 907.427 1528.85C1050.63 1561.53 1128.47 1684.55 1129.43 1783.54C1130.39 1892.14 1051.59 1963.25 1036.21 1976.71C983.351 2019.96 917.038 2042.06 850.725 2042.06ZM848.803 1542.31C828.62 1542.31 805.555 1545.19 780.567 1551.92C711.371 1573.06 624.875 1635.53 606.615 1743.17C593.16 1821.02 621.992 1902.71 679.656 1957.49C769.996 2042.06 923.765 2043.02 1022.75 1960.37C1037.17 1947.88 1109.25 1882.52 1108.29 1783.54C1107.33 1666.29 1003.53 1572.1 902.622 1548.07C888.206 1545.19 869.946 1542.31 848.803 1542.31Z" fill="#231F20"/>
<path d="M232.759 2172.77C230.837 2172.77 229.875 2172.77 227.953 2171.81C196.238 2155.47 168.367 2133.37 144.341 2107.42C142.419 2105.49 101.093 2059.36 79.9494 2000.74C41.5069 1895.02 59.7672 1739.33 168.367 1646.11C254.863 1572.1 358.658 1570.18 399.022 1572.1C404.789 1572.1 408.633 1576.91 408.633 1582.68C408.633 1588.44 403.827 1592.29 398.061 1592.29C359.618 1590.37 261.59 1591.33 181.822 1660.52C80.9103 1747.98 63.6114 1894.06 99.1707 1993.05C119.353 2047.83 157.795 2091.08 159.718 2093C181.822 2117.03 208.732 2138.17 237.564 2153.55C242.369 2156.43 244.291 2162.2 241.408 2167C240.447 2170.85 236.603 2172.77 232.759 2172.77Z" fill="#231F20"/>
<path d="M238.524 2093.96C236.601 2093.96 234.68 2093 232.757 2092.04C226.991 2088.2 221.225 2083.39 216.419 2078.59C173.171 2039.18 157.794 1991.13 151.067 1970.95C121.274 1878.68 128.962 1708.58 239.484 1616.31C255.822 1602.86 273.122 1591.33 292.343 1582.68C297.148 1579.79 303.876 1582.68 305.798 1587.48C308.681 1592.29 305.798 1599.02 300.993 1600.94C283.693 1609.59 267.356 1620.16 251.979 1631.69C149.145 1717.23 141.456 1877.72 170.288 1964.22C176.055 1983.44 190.47 2026.69 229.874 2063.21C234.679 2067.05 239.484 2071.86 244.29 2075.7C249.095 2079.55 250.056 2085.31 246.212 2090.12C244.29 2093 241.407 2093.96 238.524 2093.96Z" fill="#231F20"/>
<path d="M1417.75 1294.36C1415.83 1294.36 1414.87 1294.36 1412.95 1293.4C1408.14 1290.51 1405.26 1284.75 1408.14 1279.94C1418.71 1257.84 1430.25 1237.65 1443.7 1217.47C1456.19 1200.17 1469.65 1183.83 1484.06 1168.46C1487.91 1164.61 1494.64 1163.65 1498.48 1168.46C1502.32 1172.3 1503.29 1179.03 1498.48 1182.87C1485.03 1197.29 1471.57 1213.63 1460.04 1229.97C1446.58 1248.23 1436.01 1268.41 1425.44 1289.55C1425.44 1292.43 1421.6 1294.36 1417.75 1294.36Z" fill="#231F20"/>
<path d="M2211.59 1749.9C2168.34 1749.9 2122.21 1731.64 2086.65 1698.96C2047.25 1662.44 2018.42 1610.55 1998.23 1538.47L1995.35 1529.82C1981.9 1481.76 1978.05 1466.39 1959.79 1446.2C1934.8 1418.33 1893.48 1403.92 1838.7 1402.96C1832.93 1402.96 1828.13 1398.15 1828.13 1392.39C1828.13 1386.62 1832.93 1381.81 1838.7 1381.81C1900.2 1382.77 1945.38 1399.11 1975.17 1431.79C1996.31 1455.82 2001.12 1472.15 2015.53 1523.09L2018.42 1531.74C2037.64 1599.97 2064.55 1648.99 2101.07 1682.63C2146.24 1723.95 2207.75 1739.33 2255.8 1720.11C2297.12 1703.77 2329.8 1662.44 2343.25 1608.62C2355.75 1557.69 2350.94 1503.87 2345.18 1456.78C2338.45 1402 2327.88 1337.6 2304.81 1278.02C2255.8 1155 2159.69 1086.77 2120.29 1062.74C2082.81 1040.64 1972.28 972.401 1837.74 1001.23C1801.22 1008.92 1765.66 1023.34 1732.02 1043.52C1727.21 1046.4 1720.49 1044.48 1717.6 1039.68C1714.72 1034.87 1716.64 1028.14 1721.45 1025.26C1757.01 1004.12 1794.49 988.739 1833.89 980.089C1976.13 950.296 2092.42 1020.45 2130.86 1044.48C2172.19 1069.47 2273.1 1141.55 2324.99 1270.33C2349.98 1331.84 2359.59 1398.15 2367.28 1453.89C2373.05 1502.91 2378.81 1559.61 2365.36 1613.43C2349.98 1673.02 2313.46 1720.11 2265.41 1738.37C2247.15 1747.02 2229.85 1749.9 2211.59 1749.9Z" fill="#231F20"/>
<path d="M1450.43 2253.5C1447.54 2253.5 1444.66 2252.54 1442.74 2250.62C1438.89 2246.77 1438.89 2240.05 1443.7 2236.2C1510.97 2174.69 1562.87 2103.57 1598.43 2023.81C1612.85 1991.13 1620.54 1968.06 1634.95 1917.13C1642.64 1890.22 1650.33 1864.27 1656.09 1837.36C1657.06 1831.59 1662.82 1828.71 1668.59 1829.67C1674.35 1830.63 1677.24 1836.4 1676.28 1842.17C1669.55 1869.08 1662.82 1895.99 1655.13 1922.9C1640.72 1970.95 1633.03 1996.9 1617.65 2032.46C1581.13 2114.15 1527.31 2187.19 1458.12 2251.58C1455.23 2253.5 1452.35 2253.5 1450.43 2253.5Z" fill="#231F20"/>
<path d="M1694.53 1704.73C1693.57 1704.73 1693.57 1704.73 1692.61 1704.73C1686.85 1703.77 1683 1698 1683.96 1693.2C1697.42 1622.08 1708.95 1572.1 1753.16 1518.28C1782.95 1481.76 1818.51 1454.85 1855.99 1440.44C1890.59 1427.94 1929.99 1424.1 1968.44 1428.9C1974.2 1429.86 1978.05 1434.67 1977.09 1440.44C1976.13 1446.2 1971.32 1450.05 1965.55 1449.09C1929.99 1444.28 1895.4 1447.16 1862.72 1458.7C1829.08 1471.19 1796.41 1496.18 1768.54 1529.82C1727.21 1579.79 1716.64 1625.92 1704.14 1696.08C1704.14 1700.88 1700.3 1704.73 1694.53 1704.73Z" fill="#231F20"/>
<path d="M422.089 1395.27C429.778 1424.1 437.466 1453.89 455.726 1478.88C473.987 1503.87 499.935 1519.25 527.806 1532.7C535.495 1536.55 542.222 1525.01 534.534 1521.17C509.546 1508.67 482.636 1494.26 466.298 1470.23C449.96 1447.17 443.233 1419.3 435.544 1391.43C432.661 1382.78 420.167 1386.62 422.089 1395.27Z" fill="#231F20"/>
<path d="M790.177 1426.02C788.255 1447.17 797.865 1469.27 809.398 1486.57C819.97 1502.91 834.385 1517.33 851.684 1527.9C859.373 1532.7 866.101 1521.17 858.412 1516.36C843.996 1506.75 830.541 1494.26 820.93 1479.84C811.32 1464.47 801.709 1445.25 803.631 1426.02C804.592 1417.37 791.138 1417.37 790.177 1426.02Z" fill="#231F20"/>
<path d="M1060.24 1372.2C1065.04 1380.85 1068.89 1390.46 1074.65 1398.15C1080.42 1406.8 1088.11 1413.53 1095.8 1420.26C1111.17 1433.71 1126.55 1445.24 1145.77 1452.93C1149.62 1453.89 1153.46 1451.01 1154.42 1448.13C1155.38 1444.28 1153.46 1441.4 1149.62 1439.48C1132.32 1432.75 1118.86 1421.22 1105.41 1409.68C1098.68 1403.92 1090.99 1398.15 1086.19 1390.46C1081.38 1382.77 1076.58 1374.13 1072.73 1365.48C1067.93 1356.83 1056.39 1363.55 1060.24 1372.2Z" fill="#231F20"/>
<path d="M682.543 1586.52C664.282 1609.59 661.399 1639.38 657.555 1667.25C652.749 1698.97 649.866 1730.68 649.866 1763.36C649.866 1821.98 659.477 1881.57 684.465 1935.39C697.92 1964.22 715.219 1991.13 737.323 2014.19C743.09 2020.92 752.7 2011.31 746.934 2004.58C668.127 1920.01 654.672 1798.92 669.087 1689.35C671.01 1673.02 673.893 1655.72 676.776 1639.38C679.659 1624 683.503 1608.63 693.114 1597.09C697.919 1589.4 688.309 1579.79 682.543 1586.52Z" fill="#231F20"/>
<path d="M131.846 1700.89C144.34 1706.65 157.795 1711.46 171.249 1713.38C175.094 1714.34 178.938 1712.42 179.899 1708.58C180.86 1705.69 178.938 1700.89 175.094 1699.93C168.366 1698.97 162.6 1697.04 155.873 1695.12C152.989 1694.16 150.106 1693.2 146.262 1692.24C145.301 1692.24 145.301 1691.28 144.34 1691.28C144.34 1691.28 143.378 1691.28 143.378 1690.32C141.456 1689.35 140.495 1689.35 138.573 1688.39C135.69 1686.47 130.885 1687.43 128.962 1691.28C127.04 1695.12 128.002 1699.93 131.846 1700.89Z" fill="#231F20"/>
<path d="M95.3285 1762.39C111.667 1769.12 128.966 1773.93 147.226 1777.77C151.07 1778.73 154.915 1776.81 155.876 1772.97C156.837 1769.12 154.915 1765.28 151.071 1764.32C133.772 1760.47 116.472 1755.67 99.173 1748.94C95.3288 1747.98 91.4843 1750.86 90.5232 1753.74C89.5622 1757.59 91.4843 1761.43 95.3285 1762.39Z" fill="#231F20"/>
<path d="M79.9507 1834.47C99.1719 1839.28 118.393 1841.2 137.614 1839.28C141.459 1839.28 144.342 1836.39 144.342 1832.55C144.342 1828.71 141.459 1825.82 137.614 1825.82C119.354 1826.78 101.094 1825.82 83.7952 1821.02C75.1456 1820.06 71.3011 1832.55 79.9507 1834.47Z" fill="#231F20"/>
<path d="M74.1846 1902.71C96.289 1900.79 118.393 1899.83 140.498 1898.87C149.147 1898.87 149.147 1884.45 140.498 1885.41C118.393 1886.37 96.289 1887.34 74.1846 1889.26C70.3403 1889.26 67.457 1892.14 67.457 1895.99C67.457 1899.83 70.3403 1902.71 74.1846 1902.71Z" fill="#231F20"/>
<path d="M89.5642 1986.32C108.785 1973.83 129.929 1964.22 152.033 1957.49C160.683 1954.61 156.838 1941.15 148.189 1944.03C125.123 1951.72 103.019 1961.33 81.8758 1973.83C75.1483 1979.59 81.8757 1991.13 89.5642 1986.32Z" fill="#231F20"/>
<path d="M129.926 2055.52C130.887 2054.56 130.887 2052.64 131.848 2051.68C132.809 2050.71 130.887 2052.64 131.848 2050.71L132.809 2049.75C133.77 2048.79 134.731 2047.83 135.692 2046.87L136.653 2045.91C135.692 2046.87 137.614 2045.91 137.614 2045.91C142.42 2043.03 147.225 2040.14 152.03 2037.26C162.602 2031.49 172.212 2025.73 178.94 2016.12C180.862 2013.23 179.901 2008.43 176.057 2006.51C173.174 2004.58 168.368 2005.55 166.446 2009.39C166.446 2010.35 165.485 2010.35 165.485 2011.31L164.524 2012.27C163.563 2013.23 162.602 2014.19 161.641 2015.16C160.68 2016.12 160.68 2016.12 159.719 2016.12C159.719 2016.12 157.797 2018.04 158.758 2017.08C157.797 2018.04 156.836 2019 155.875 2019C151.069 2021.88 146.264 2024.77 141.459 2027.65C131.848 2033.42 121.276 2039.18 115.51 2049.75C113.588 2052.64 114.549 2057.44 118.393 2059.36C123.198 2060.33 128.004 2059.36 129.926 2055.52Z" fill="#231F20"/>
<path d="M180.861 2122.79C193.355 2103.57 205.849 2084.35 219.304 2065.13C221.226 2062.24 220.265 2057.44 216.42 2055.52C213.537 2053.59 208.732 2054.55 206.81 2058.4C194.316 2077.62 181.822 2096.84 168.367 2116.06C166.445 2118.95 167.406 2123.75 171.25 2125.67C174.134 2127.6 177.978 2126.63 180.861 2122.79Z" fill="#231F20"/>
<path d="M1983.82 1471.19C2017.46 1496.18 2029.95 1541.35 2050.13 1576.91C2072.24 1614.39 2101.07 1649.95 2135.67 1676.86C2166.42 1700.88 2205.82 1711.46 2244.27 1701.85C2278.86 1694.16 2308.66 1668.21 2328.84 1639.38C2349.02 1610.54 2361.52 1576.91 2366.32 1543.27C2367.28 1534.62 2354.79 1530.78 2352.87 1539.43C2348.06 1566.34 2340.37 1593.25 2325.96 1617.27C2307.7 1648.03 2279.83 1676.86 2244.27 1687.43C2206.78 1698 2169.3 1687.43 2139.51 1663.4C2106.83 1636.49 2078.96 1602.86 2058.78 1566.34C2037.64 1529.82 2025.14 1486.57 1989.58 1459.66C1983.82 1453.89 1977.09 1466.39 1983.82 1471.19Z" fill="#231F20"/>
<path d="M482.637 721.563C486.481 723.485 489.364 725.407 493.209 727.329C496.092 729.251 499.936 730.212 502.819 733.095C506.663 737.901 502.819 748.472 501.858 754.239C498.014 768.655 490.325 782.11 481.676 794.603C473.987 805.175 464.377 816.708 453.805 825.357C443.233 834.007 428.818 838.812 415.363 840.734C406.713 841.695 406.713 855.15 415.363 854.189C431.701 852.267 448.039 846.501 461.494 836.89C474.948 826.319 486.481 811.903 496.092 798.448C506.663 784.032 514.352 766.733 517.235 748.472C518.196 740.784 520.118 732.134 514.352 725.407C508.586 718.679 498.014 714.835 490.325 710.991C481.676 705.225 473.987 716.757 482.637 721.563Z" fill="#231F20"/>
<path d="M414.402 2207.37C422.09 2157.39 429.779 2146.82 435.545 2145.86C442.273 2145.86 446.117 2160.27 462.455 2193.91C476.871 2222.74 494.171 2251.57 497.054 2249.65C499.937 2248.69 484.559 2219.86 484.559 2178.53C484.559 2162.2 486.482 2148.74 488.404 2139.13C493.209 2158.35 500.898 2180.46 512.43 2205.44C531.652 2242.93 554.717 2269.83 572.977 2288.1C564.328 2274.64 553.756 2257.34 543.185 2235.24C536.457 2221.78 513.391 2173.73 503.781 2118.95C489.365 2033.41 511.47 1958.45 525.886 1920.97C516.275 1894.06 491.287 1876.76 465.338 1875.8C435.545 1874.84 416.324 1895.98 413.441 1899.83C400.947 1930.58 382.687 1983.44 382.687 2050.71C383.648 2120.87 401.908 2175.65 414.402 2207.37Z" fill="#DCD2FE"/>
<path d="M1312.03 848.421C1294.74 896.474 1284.16 906.085 1277.44 905.124C1269.75 904.163 1268.79 889.747 1255.33 853.227C1243.8 822.473 1230.34 790.757 1226.5 791.718C1222.66 792.679 1235.15 823.434 1228.42 863.798C1225.54 880.136 1220.73 892.63 1216.89 901.28C1214.97 882.058 1211.12 858.032 1201.51 832.083C1187.1 791.719 1165.95 760.965 1148.65 740.782C1156.34 755.198 1164.99 774.419 1172.68 797.485C1181.33 821.511 1193.82 863.798 1196.71 919.54C1199.59 968.554 1192.86 1009.88 1186.14 1040.63C1197.67 1026.22 1212.08 1007 1223.62 982.97C1238.99 951.255 1244.76 923.384 1246.68 902.241C1256.29 924.345 1265.9 951.255 1271.67 982.97C1285.13 1055.05 1270.71 1115.6 1259.18 1152.12C1279.36 1124.25 1307.23 1074.27 1319.72 1007.96C1332.22 939.722 1321.65 882.058 1312.03 848.421Z" fill="#DCD2FE"/>
<path d="M1490.79 2562.96C1473.5 2611.01 1463.89 2619.66 1458.12 2618.7C1451.39 2617.74 1450.43 2603.32 1439.86 2566.8C1436.01 2555.27 1428.33 2528.36 1415.83 2505.29C1408.14 2490.88 1394.69 2469.73 1371.62 2447.63C1380.27 2476.46 1388.92 2512.98 1392.77 2555.27C1397.57 2610.05 1392.77 2657.14 1387 2691.74C1394.69 2684.05 1404.3 2673.48 1412.95 2658.1C1422.56 2641.76 1427.36 2626.39 1430.25 2615.82C1450.43 2651.38 1452.35 2678.28 1450.43 2696.55C1448.51 2709.04 1444.66 2721.53 1446.59 2722.49C1449.47 2723.45 1465.81 2695.58 1475.42 2670.6C1484.07 2648.49 1494.64 2612.93 1490.79 2562.96Z" fill="#DCD2FE"/>
<path d="M803.634 1723.95C820.933 1717.23 840.154 1724.92 847.843 1742.21C860.337 1770.09 888.207 1781.62 916.078 1771.05C933.377 1764.32 951.637 1772.01 959.326 1788.35C967.014 1803.72 960.287 1823.9 944.91 1832.55C929.533 1841.2 909.351 1836.4 899.74 1821.02C896.857 1816.22 894.935 1811.41 892.052 1806.61C878.597 1786.42 852.648 1778.73 829.582 1787.38C812.283 1794.11 794.984 1787.38 786.335 1772.01C778.646 1757.59 782.49 1739.33 795.945 1728.76C798.828 1726.84 801.711 1724.92 803.634 1723.95Z" fill="black"/>
<path d="M988.155 1722.03C970.856 1728.76 950.673 1721.07 943.946 1702.81C937.219 1685.51 945.868 1665.33 963.167 1658.6C980.466 1651.87 1000.65 1659.56 1007.38 1677.82C1014.1 1695.12 1005.45 1714.34 988.155 1722.03Z" fill="black"/>
<path d="M757.504 1835.43C774.803 1828.71 794.985 1837.36 801.712 1854.66C808.44 1871.96 799.79 1892.14 782.491 1898.87C765.192 1905.59 745.01 1896.94 738.282 1879.64C731.555 1862.34 740.205 1843.12 757.504 1835.43Z" fill="black"/>
</svg>
