<svg width="2193" height="3378" viewBox="0 0 2193 3378" fill="none" xmlns="http://www.w3.org/2000/svg">
<g clip-path="url(#clip0_810_59)">
<path d="M1705.73 1725.76C1704.7 1689.56 1699.53 1653.36 1695.39 1617.16C1694.36 1604.75 1692.29 1592.34 1684.02 1583.04C1678.85 1577.86 1674.71 1572.69 1670.57 1566.49C1670.57 1566.49 1669.54 1567.52 1668.51 1567.52C1667.47 1599.58 1615.76 1598.55 1614.73 1565.45C1613.7 1539.6 1596.12 1513.74 1582.67 1493.06C1567.16 1469.27 1553.72 1444.45 1539.24 1419.63C1516.49 1380.33 1488.57 1347.24 1452.37 1319.31C1445.13 1314.14 1437.89 1308.97 1430.65 1303.8C1430.65 1304.83 1431.69 1306.9 1431.69 1307.94C1437.89 1325.52 1443.06 1343.1 1438.93 1361.72C1434.79 1381.37 1418.24 1395.84 1399.63 1402.05C1376.88 1409.29 1337.58 1415.49 1309.66 1407.22C1276.57 1413.43 1239.34 1401.02 1208.31 1390.67C1175.22 1379.3 1141.1 1364.82 1116.28 1340C1084.22 1306.9 1079.05 1241.75 1117.31 1217.96C1117.31 1213.82 1117.31 1210.72 1117.31 1206.58C1004.59 1207.62 891.868 1212.79 780.181 1223.13C782.249 1226.23 784.317 1229.34 786.385 1232.44C792.59 1240.71 798.795 1247.95 806.034 1255.19C819.478 1267.6 834.99 1276.91 845.331 1293.46C856.707 1313.11 855.673 1335.86 847.4 1355.51C832.922 1391.71 791.556 1412.39 759.498 1429.97C712.962 1455.83 668.494 1461 641.606 1463.07C593.002 1467.2 528.885 1473.41 507.168 1438.25C495.793 1419.63 498.895 1396.88 504.066 1380.33C501.997 1366.89 491.656 1358.61 481.315 1358.61C470.973 1359.65 464.768 1368.96 464.768 1369.99C416.164 1431.01 372.73 1498.23 334.467 1570.63C333.433 1572.69 331.365 1575.8 330.33 1577.86C330.33 1578.9 330.33 1580.97 329.296 1582C327.228 1596.48 308.613 1604.75 296.204 1600.62C289.999 1598.55 284.828 1595.45 281.726 1590.27C275.521 1600.62 270.35 1611.99 265.18 1623.37C256.907 1640.95 250.702 1659.57 246.565 1679.22C246.565 1681.29 246.565 1684.39 246.565 1686.46C238.292 1736.1 243.463 1785.74 246.565 1835.38C247.599 1846.76 248.633 1859.17 249.668 1871.58C250.702 1873.65 250.702 1876.75 251.736 1878.82C257.941 1899.5 267.248 1922.25 284.828 1936.73C288.965 1939.84 293.101 1942.94 297.238 1946.04C297.238 1946.04 297.238 1946.04 298.272 1946.04C300.34 1946.04 303.443 1945.01 305.511 1945.01C310.682 1945.01 314.818 1946.04 318.955 1949.14C321.023 1950.18 323.091 1952.25 324.126 1953.28C327.228 1955.35 328.262 1958.45 329.296 1961.55C331.365 1964.66 331.365 1967.76 331.365 1971.9C331.365 1973.96 331.365 1975 331.365 1977.07C335.501 1982.24 340.672 1987.41 344.808 1993.61C381.003 2041.19 400.652 2098.07 437.881 2144.61C454.427 2165.29 473.042 2184.94 490.622 2204.59L491.656 2205.63C496.827 2205.63 501.997 2206.66 506.134 2209.76C516.475 2217 526.817 2224.24 538.192 2228.38C554.738 2233.55 559.909 2249.06 555.773 2261.47C555.773 2262.51 555.773 2264.58 556.807 2265.61C557.841 2270.78 555.773 2275.95 552.67 2280.09C554.738 2287.33 553.704 2294.57 549.568 2300.77C511.305 2354.55 489.588 2415.57 472.007 2478.66C465.803 2499.34 459.598 2520.03 453.393 2541.74C451.325 2547.95 450.29 2554.15 449.256 2561.39C443.051 2595.52 440.983 2630.68 436.847 2665.85C432.71 2711.35 433.744 2757.89 438.915 2803.4C445.12 2808.57 449.256 2815.81 450.29 2825.12C450.29 2832.35 451.325 2838.56 451.325 2844.77C455.461 2847.87 459.598 2853.04 460.632 2858.21C461.666 2861.31 463.734 2865.45 464.768 2868.55C465.803 2870.62 465.803 2871.65 466.837 2873.72C466.837 2873.72 467.871 2875.79 467.871 2876.83C467.871 2877.86 468.905 2878.89 468.905 2879.93C469.939 2882 469.939 2883.03 470.973 2885.1C472.007 2888.2 474.076 2891.3 475.11 2894.41C481.315 2906.82 487.519 2919.23 494.758 2930.6C497.861 2936.81 501.997 2941.98 505.1 2948.19C518.544 2960.6 534.056 2970.94 550.602 2974.04C568.182 2977.14 584.728 2971.97 601.275 2964.73C602.309 2962.66 604.377 2958.53 605.411 2954.39C636.435 2880.96 636.435 2834.42 644.708 2833.39C652.982 2833.39 659.186 2875.79 672.63 2943.01C672.63 2943.01 687.108 3012.31 704.689 3084.7C723.303 3159.16 734.679 3200.53 758.464 3250.17C778.112 3291.54 799.829 3323.6 815.341 3344.29C820.512 3349.46 832.922 3359.8 850.502 3363.94C853.604 3364.97 862.912 3366 873.253 3364.97C877.39 3364.97 887.731 3363.94 896.004 3358.77C903.243 3354.63 909.448 3348.42 919.789 3325.67C925.994 3312.23 931.165 3296.71 939.438 3268.79C944.609 3252.24 947.711 3239.83 949.779 3229.49C950.814 3224.32 957.018 3202.6 963.223 3171.57C968.394 3149.86 970.462 3139.51 972.53 3129.17C977.701 3097.11 975.633 3094.01 979.769 3088.84C991.145 3074.36 1017 3081.6 1059.4 3083.67C1079.05 3084.7 1108 3085.73 1143.16 3081.6C1145.23 3088.84 1147.3 3100.21 1150.4 3112.62C1153.5 3124 1156.61 3135.38 1157.64 3141.58C1164.88 3167.44 1172.12 3187.09 1176.26 3198.46C1203.14 3271.89 1194.87 3279.13 1214.52 3311.19C1226.93 3331.88 1248.65 3367.04 1281.74 3369.11C1316.9 3372.21 1343.79 3337.05 1353.09 3325.67C1377.91 3293.61 1383.08 3257.41 1385.15 3238.8C1391.36 3180.88 1371.71 3148.82 1390.32 3135.38C1397.56 3130.21 1401.7 3134.34 1436.86 3128.14C1436.86 3128.14 1452.37 3125.03 1474.09 3119.86C1555.78 3099.18 1604.39 3046.44 1604.39 3046.44C1648.86 2997.83 1656.1 2940.95 1660.23 2909.92C1675.74 2789.95 1615.76 2694.81 1594.05 2663.78C1597.15 2569.67 1584.74 2502.44 1573.36 2461.08C1559.92 2409.37 1528.9 2322.49 1526.83 2317.32C1520.62 2299.74 1515.45 2286.29 1511.32 2275.95C1500.98 2263.54 1490.63 2250.1 1483.39 2235.62C1477.19 2222.17 1479.26 2206.66 1492.7 2198.39C1504.08 2192.18 1511.32 2174.6 1518.56 2164.26C1530.97 2146.68 1544.41 2130.13 1556.82 2112.55C1578.54 2079.45 1596.12 2044.29 1610.59 2008.09C1611.63 2006.03 1612.66 2002.92 1613.7 2000.85C1616.8 1991.55 1619.9 1982.24 1621.97 1972.93C1625.07 1963.62 1626.11 1954.32 1630.24 1946.04C1635.41 1934.67 1643.69 1926.39 1654.03 1920.19C1659.2 1917.08 1665.4 1915.02 1671.61 1913.98C1673.68 1911.91 1675.74 1908.81 1676.78 1906.74C1677.81 1905.71 1677.81 1904.67 1678.85 1903.64C1685.05 1883.99 1690.22 1864.34 1694.36 1843.66C1705.73 1802.29 1705.73 1762.99 1705.73 1725.76ZM1345.85 1988.44C1293.11 2026.71 1225.89 2031.88 1162.81 2024.64C1127.65 2020.5 1094.56 2011.2 1059.4 2008.09C1025.27 2004.99 991.145 2010.16 957.018 2004.99C896.004 2019.47 832.922 2022.57 770.873 2024.64C646.777 2027.74 527.851 1929.49 516.475 1803.32C510.27 1741.27 539.226 1685.42 579.558 1639.92C601.275 1615.1 627.128 1595.45 655.05 1579.93C670.562 1570.63 694.347 1561.32 702.62 1558.21C721.235 1549.94 736.747 1544.77 747.088 1540.63C785.351 1528.22 834.99 1513.74 896.004 1503.4C927.028 1498.23 978.735 1489.96 1046.99 1492.03C1046.99 1492.03 1120.41 1488.92 1208.31 1513.74C1232.1 1520.98 1256.92 1528.22 1278.64 1540.63C1290.01 1546.84 1300.35 1555.11 1310.69 1563.39C1375.84 1585.1 1415.14 1640.95 1434.79 1704.04C1467.88 1806.42 1433.76 1924.32 1345.85 1988.44Z" fill="#EFEEEB"/>
<path d="M1477.19 2567.6C1484.43 2554.15 1490.63 2544.85 1496.84 2538.64C1503.04 2531.4 1514.42 2517.96 1543.37 2498.31C1548.55 2495.2 1554.75 2487.96 1567.16 2482.79C1574.4 2479.69 1580.6 2477.62 1584.74 2475.55C1584.74 2467.28 1582.67 2455.9 1576.47 2442.46C1573.36 2437.29 1570.26 2432.12 1567.16 2427.98C1534.07 2445.56 1513.38 2465.21 1499.94 2479.69C1481.33 2501.41 1457.54 2518.99 1442.03 2542.78C1441 2544.85 1437.89 2550.02 1430.65 2553.12C1425.48 2555.19 1420.31 2555.19 1416.18 2554.15C1417.21 2568.63 1418.24 2584.15 1419.28 2599.66C1420.31 2618.27 1419.28 2633.79 1419.28 2644.13C1416.18 2716.52 1395.49 2895.44 1393.42 3050.57C1393.42 3067.12 1393.42 3096.08 1394.46 3132.27C1420.31 3132.27 1463.75 3129.17 1512.35 3107.45C1523.73 3102.28 1557.85 3085.74 1591.98 3052.64C1601.29 3043.33 1635.41 3010.24 1655.06 2962.66C1694.36 2869.59 1657.13 2776.51 1645.75 2747.55C1598.18 2637.92 1508.21 2584.15 1477.19 2567.6Z" fill="#EAEC85"/>
<path d="M1640.58 2976.11C1663.34 2924.4 1662.3 2877.86 1661.27 2854.07C1660.23 2811.67 1649.89 2779.61 1643.69 2757.89C1634.38 2728.94 1624.04 2705.15 1617.83 2692.74C1575.43 2613.1 1472.02 2573.8 1445.13 2564.5C1472.02 2582.08 1518.56 2619.31 1553.72 2682.4C1581.64 2732.04 1588.88 2775.47 1591.98 2790.99C1606.46 2880.96 1577.5 2951.29 1570.26 2967.84C1525.79 3069.19 1441 3114.69 1416.18 3127.1C1443.06 3125.04 1524.76 3116.76 1588.88 3052.64C1617.83 3024.72 1633.34 2993.69 1640.58 2976.11Z" fill="#DCE033"/>
<path d="M1507.18 2848.9C1512.35 2723.76 1443.06 2630.69 1418.24 2600.69C1416.18 2649.3 1415.14 2688.6 1414.11 2714.46C1411 2843.73 1412.04 2906.82 1402.73 3012.31C1400.66 3031.96 1399.63 3047.47 1398.6 3056.78C1409.97 3051.61 1424.45 3042.3 1439.96 3027.82C1502.01 2969.91 1505.11 2886.13 1507.18 2848.9Z" fill="#DCE033"/>
<path d="M2017.01 566.412C1985.99 540.557 1961.17 513.668 1937.38 481.608C1896.02 426.795 1873.26 399.905 1863.96 394.734C1841.21 382.324 1819.49 384.392 1775.02 386.461C1735.72 388.529 1700.56 396.803 1644.72 413.35C1574.4 434.034 1539.24 444.376 1517.52 456.787C1443.06 497.121 1404.8 559.173 1344.82 660.525C1317.93 704.996 1294.15 750.501 1275.53 799.109C1256.92 848.75 1242.44 900.461 1227.96 952.171C1213.48 1004.92 1199.01 1056.63 1183.49 1108.34C1166.95 1161.08 1151.44 1214.86 1148.33 1269.67C1148.33 1276.91 1145.23 1282.08 1142.13 1286.22C1159.71 1299.66 1177.29 1313.11 1195.9 1324.48C1218.66 1337.93 1242.44 1343.1 1268.29 1345.17C1298.28 1347.24 1327.24 1343.1 1357.23 1341.03C1362.4 1341.03 1367.57 1341.03 1372.74 1340C1373.78 1337.93 1373.78 1336.9 1374.81 1334.83C1378.95 1324.48 1384.12 1314.14 1388.25 1303.8C1397.56 1280.01 1403.77 1256.23 1411 1232.44C1426.52 1179.7 1445.13 1131.09 1476.16 1085.58C1507.18 1040.08 1544.41 998.71 1576.47 954.239C1587.84 938.726 1613.7 934.589 1623 954.239C1633.34 975.958 1644.72 994.573 1660.23 1013.19C1720.21 1079.38 1801.91 1126.95 1891.88 1132.12C1969.44 1136.26 2051.14 1115.58 2099.74 1052.49C2142.14 997.676 2159.72 924.247 2160.76 855.99C2161.79 784.63 2146.28 706.03 2101.81 649.149C2080.09 616.054 2048.03 591.233 2017.01 566.412Z" fill="#EFEEEB"/>
<path d="M2181.44 835.306C2180.4 816.69 2178.34 799.109 2178.34 780.493C2172.13 760.843 2166.96 740.159 2159.72 720.509C2150.41 710.167 2142.14 699.825 2132.83 689.483C2109.05 662.594 2084.23 636.739 2059.41 610.884C2036.66 586.063 2014.94 560.208 1991.16 535.387C1984.95 530.216 1979.78 525.045 1973.58 519.874C1970.47 518.839 1968.41 516.771 1966.34 514.703C1963.24 511.6 1961.17 509.532 1958.06 506.429C1945.66 496.087 1933.25 484.711 1923.94 471.266C1907.39 452.65 1890.85 433 1874.3 413.35C1873.27 411.282 1871.2 410.248 1870.16 408.179C1857.75 397.837 1846.38 387.495 1835 377.153C1733.66 401.974 1631.28 425.761 1530.97 458.855C1526.83 459.89 1522.69 460.924 1518.56 459.89C1507.18 465.061 1495.8 470.232 1485.46 476.437C1464.78 495.053 1443.06 513.668 1424.45 533.318C1395.49 563.31 1374.81 598.473 1354.13 633.636C1311.73 709.133 1283.81 792.904 1249.68 872.537C1247.61 876.674 1244.51 879.777 1240.37 881.845C1231.07 912.871 1220.72 943.898 1210.38 974.924C1199.01 1011.12 1194.87 1048.35 1182.46 1083.52C1180.39 1103.17 1179.36 1122.82 1174.19 1142.46C1174.19 1144.53 1173.15 1147.64 1173.15 1149.7C1167.98 1192.11 1153.51 1233.47 1144.2 1275.88C1144.2 1275.88 1145.23 1275.88 1145.23 1276.91C1150.4 1281.05 1155.57 1285.19 1160.74 1289.32C1169.02 1296.56 1176.26 1303.8 1185.56 1311.04C1188.67 1313.11 1190.73 1315.18 1193.84 1317.25C1217.62 1326.55 1241.41 1336.9 1267.26 1343.1C1286.91 1347.24 1305.52 1350.34 1325.17 1354.48C1334.48 1352.41 1343.79 1350.34 1353.09 1348.27C1364.47 1345.17 1375.84 1343.1 1387.22 1340C1387.22 1338.96 1388.25 1337.93 1388.25 1336.9C1386.19 1341.03 1389.29 1331.72 1389.29 1330.69C1390.32 1327.59 1391.36 1323.45 1391.36 1320.35C1392.39 1314.14 1393.43 1307.94 1394.46 1301.73C1397.56 1289.32 1401.7 1276.91 1405.83 1264.5C1415.14 1237.61 1424.45 1211.76 1434.79 1184.87C1436.86 1179.7 1439.96 1174.53 1444.1 1171.42C1444.1 1171.42 1444.1 1171.42 1444.1 1170.39C1446.17 1167.29 1448.23 1163.15 1450.3 1160.05C1458.58 1141.43 1465.81 1121.78 1475.12 1103.17C1484.43 1084.55 1495.8 1066.97 1508.21 1049.39C1533.03 1014.22 1558.89 978.026 1585.77 943.898C1595.08 932.521 1614.73 934.59 1624.04 943.898C1630.24 950.103 1632.31 956.308 1631.28 963.547C1631.28 964.582 1632.31 964.582 1632.31 965.616C1634.38 969.753 1636.45 972.855 1639.55 975.958C1639.55 975.958 1639.55 976.992 1640.58 976.992C1641.62 979.061 1643.69 980.095 1644.72 982.163C1647.82 985.266 1650.93 988.368 1652.99 992.505C1664.37 1004.92 1674.71 1018.36 1686.09 1030.77C1687.12 1031.8 1688.15 1032.84 1688.15 1032.84C1717.11 1056.63 1752.27 1072.14 1784.33 1089.72C1801.91 1099.03 1819.49 1109.37 1837.07 1119.71C1861.89 1123.85 1886.71 1127.99 1911.53 1132.12C1912.56 1132.12 1914.63 1131.09 1915.67 1131.09C1934.28 1129.02 1953.93 1121.78 1971.51 1117.64C1991.16 1112.47 2011.84 1108.34 2031.49 1103.17C2035.63 1102.13 2039.76 1101.1 2042.86 1101.1C2066.65 1083.52 2090.43 1062.83 2113.19 1042.15C2129.73 999.745 2149.38 958.376 2165.93 915.974C2171.1 901.495 2176.27 887.016 2182.47 871.503C2182.47 862.195 2181.44 848.751 2181.44 835.306Z" fill="#EFEEEB"/>
<path d="M715.03 1173.49C691.244 1118.68 672.63 1061.8 646.777 1008.02C620.923 954.24 595.07 901.495 576.455 844.614C560.943 799.109 548.533 751.535 536.124 704.996C530.953 701.894 526.816 696.723 524.748 689.483C507.168 619.157 517.509 542.626 516.475 471.266C515.441 378.187 517.509 285.109 513.373 193.065C513.373 188.928 512.339 183.757 512.339 179.62C510.27 155.833 508.202 129.978 498.895 107.226C486.485 78.2681 462.7 57.584 439.949 34.8315H438.915C435.812 33.7973 431.676 31.7288 428.573 30.6946C428.573 30.6946 427.539 30.6946 427.539 29.6604C425.471 28.6262 423.403 27.592 421.334 27.592C405.822 21.3868 389.276 16.2158 373.764 12.079C369.627 11.0448 366.525 10.0105 364.457 7.94214C310.682 13.1132 253.804 37.9341 211.404 59.6524C207.268 61.7208 203.131 62.755 198.995 62.755C183.482 71.0286 167.97 79.3023 152.458 86.5417C127.639 97.918 102.82 110.328 81.1028 126.876C50.0786 151.697 33.5324 186.86 19.0544 223.057C24.2251 265.459 26.2934 307.862 26.2934 349.23C26.2934 410.248 24.2251 471.266 27.3276 532.284C30.43 597.439 38.7031 663.628 48.0103 728.783C55.2493 783.596 64.5565 837.374 76.9662 890.119C80.0686 892.187 83.171 895.29 86.2735 900.461C91.4441 910.803 96.6148 921.145 101.786 930.453C126.605 976.992 156.595 1020.43 187.619 1061.8C222.78 1104.2 255.872 1148.67 291.033 1190.04C313.784 1208.65 336.535 1229.34 360.32 1252.09C383.071 1273.81 403.754 1294.49 423.403 1315.18C428.573 1319.31 433.744 1322.42 437.881 1326.55C457.529 1342.07 476.144 1357.58 494.758 1374.13C499.929 1377.23 504.065 1379.3 509.236 1382.4C517.509 1387.57 526.816 1393.78 535.09 1399.98C541.294 1396.88 547.499 1395.85 554.738 1397.91C558.875 1398.95 561.977 1401.02 566.114 1401.02C566.114 1401.02 569.216 1401.02 570.25 1402.05C571.284 1402.05 574.387 1402.05 574.387 1402.05C583.694 1403.08 591.967 1402.05 601.274 1402.05C616.787 1401.02 636.435 1396.88 655.05 1392.74C682.971 1386.54 711.927 1377.23 740.883 1373.09C762.6 1355.51 780.18 1332.76 797.761 1311.04C761.566 1272.77 736.747 1222.1 715.03 1173.49Z" fill="#EFEEEB"/>
<path d="M702.62 1122.81C671.596 1056.63 644.708 989.402 614.718 923.213C600.24 892.187 583.694 863.229 570.25 832.203C565.08 819.793 554.738 790.835 543.363 746.364C522.68 665.696 517.509 593.302 515.441 544.694C512.339 469.197 520.612 469.197 518.544 356.469C518.544 328.545 516.475 330.614 515.441 245.809C515.441 222.022 515.441 198.235 512.339 174.449C506.134 126.875 501.997 91.7124 475.11 59.652C450.29 30.6943 418.232 19.3181 402.72 15.1812C386.174 11.0444 364.457 8.97601 322.057 17.2497C263.111 28.6259 223.814 49.31 151.424 86.5414C120.4 104.123 82.1371 124.807 58.3519 152.73C39.7374 175.483 27.3277 200.304 27.3277 200.304C26.2936 203.407 22.157 210.646 19.0546 223.056C13.8839 239.604 6.64494 265.459 4.57666 298.553C4.57666 300.622 4.57666 303.724 5.6108 305.793C12.8498 375.085 24.2253 443.342 27.3277 513.668C31.4643 580.891 34.5667 648.115 44.9081 715.338C65.5908 840.477 103.854 967.684 183.483 1068C203.131 1092.82 224.848 1115.58 247.599 1137.29C272.419 1160.05 298.272 1179.7 322.057 1203.48C382.037 1262.43 387.208 1273.81 460.632 1342.07C520.612 1397.91 537.158 1404.12 545.431 1406.19C593.002 1421.7 640.572 1409.29 682.972 1397.91C713.996 1389.64 735.713 1379.3 754.327 1365.85C770.873 1353.44 793.624 1336.89 797.761 1311.04C799.829 1295.53 793.624 1283.12 789.488 1272.77C758.464 1210.72 724.337 1170.39 702.62 1122.81Z" fill="#EFEEEB"/>
<path d="M1427.55 1905.71C1440.99 1885.02 1488.57 1807.46 1467.88 1712.31C1451.34 1635.78 1391.36 1580.97 1322.07 1549.94C1283.81 1533.39 1243.47 1523.05 1203.14 1514.78C1147.3 1503.4 1112.14 1493.06 1067.67 1488.92C970.462 1480.65 893.935 1500.3 807.068 1522.02C752.258 1536.5 722.268 1548.91 701.586 1558.22C671.596 1571.66 633.333 1589.24 602.308 1618.2C555.772 1659.57 499.929 1748.51 524.748 1848.83C554.738 1969.83 675.732 2011.2 689.176 2016.37C709.859 2022.57 724.337 2024.64 753.293 2027.74C850.502 2038.09 913.584 2022.57 973.564 2015.33C1145.23 1995.68 1163.85 2061.87 1274.5 2024.64C1304.49 2013.27 1377.91 1983.27 1427.55 1905.71Z" fill="#EFEEEB"/>
<path d="M483.383 1355.51C454.427 1384.47 421.335 1422.73 390.311 1471.34C355.15 1526.15 332.399 1576.83 317.921 1618.2C307.579 1603.72 294.136 1589.24 280.692 1591.31C249.668 1596.48 240.36 1700.93 243.463 1764.02C245.531 1806.42 252.77 1867.44 282.76 1937.77C299.306 1941.9 314.818 1946.04 331.365 1950.18C360.321 2045.33 405.823 2109.45 435.813 2144.61C519.578 2243.89 617.821 2284.23 697.45 2317.32C707.791 2321.46 820.512 2368 827.751 2353.52C832.922 2344.21 794.659 2308.01 596.104 2181.84C560.943 2161.16 457.53 2092.9 400.652 1955.35C343.774 1818.83 367.56 1698.87 377.901 1658.53C396.515 1662.67 416.164 1666.81 434.779 1670.94C434.779 1647.16 438.915 1590.27 477.178 1533.39C503.032 1495.13 534.056 1471.34 553.704 1459.97C530.953 1425.84 507.168 1390.67 483.383 1355.51Z" fill="#DCD2FE"/>
<path d="M131.776 789.801C131.776 789.801 53.1812 528.147 115.229 288.211C129.707 232.364 155.561 176.517 155.561 176.517C165.902 154.799 175.21 134.115 192.79 110.328C216.575 78.2677 241.394 55.5152 258.975 42.0706C211.404 52.4126 118.332 82.4045 56.2836 166.175C44.908 180.654 36.6349 196.167 28.3618 210.646C21.1229 246.843 15.9522 288.211 13.8839 334.75C10.7815 394.734 15.9522 448.513 22.157 492.984C26.2935 534.352 30.4301 575.72 35.6008 619.157C45.9422 693.62 57.3177 764.98 70.7615 832.203C75.9322 852.887 84.2053 880.811 98.6833 913.905C130.742 985.265 171.073 1031.8 197.961 1062.83C332.399 1214.86 399.618 1291.39 408.925 1283.12C424.437 1269.67 223.814 1099.03 131.776 789.801Z" fill="#DCD2FE"/>
<path d="M1192.8 1318.28C1203.14 1135.22 1252.78 832.203 1477.19 590.199C1505.11 560.207 1534.07 532.283 1563.02 508.497C1572.33 501.257 1581.64 494.018 1591.98 486.778C1607.49 475.402 1619.9 469.197 1626.11 466.094C1648.86 453.684 1691.26 429.897 1747.1 398.871C1696.43 411.282 1637.48 426.795 1572.33 445.41C1530.97 456.787 1498.91 467.129 1464.78 494.018C1443.06 511.599 1428.59 529.181 1413.07 550.899C1387.22 587.096 1349.99 645.012 1312.76 726.714C1285.87 778.424 1258.99 836.34 1235.2 902.529C1184.53 1040.08 1160.74 1166.25 1150.4 1269.67C1152.47 1275.88 1156.61 1283.12 1161.78 1290.36C1171.09 1305.87 1184.53 1314.14 1192.8 1318.28Z" fill="#DCD2FE"/>
<path d="M1127.65 1345.17C1126.62 1301.73 1125.58 1258.3 1125.58 1215.89C1091.46 1212.79 1056.3 1209.69 1019.07 1208.65C970.462 1206.59 924.96 1207.62 882.56 1209.69C918.755 1217.96 968.394 1234.51 1022.17 1264.5C1067.67 1291.39 1102.83 1321.38 1127.65 1345.17Z" fill="#DCD2FE"/>
<path d="M1291.04 1891.23C1291.04 1913.98 1286.91 1966.73 1253.82 2021.54C1293.11 2010.16 1329.31 1994.65 1362.4 1969.83C1390.32 1949.14 1406.87 1920.19 1428.59 1895.37C1438.93 1870.54 1449.27 1844.69 1452.37 1817.8C1457.54 1775.4 1452.37 1731.96 1439.96 1690.59C1419.28 1622.34 1359.3 1583.04 1297.25 1554.08C1315.86 1575.8 1373.78 1646.12 1378.95 1751.61C1382.05 1821.94 1360.33 1876.75 1346.89 1903.64C1329.31 1899.5 1310.69 1895.37 1291.04 1891.23Z" fill="#DCD2FE"/>
<path d="M575.421 2441.43C575.421 2372.13 588.865 2314.22 601.274 2274.92C587.831 2265.61 574.387 2257.34 559.909 2248.03C558.875 2249.06 558.875 2251.13 557.841 2252.17C522.68 2306.98 508.202 2368 489.587 2429.02C479.246 2463.14 468.905 2498.31 459.597 2533.47C461.666 2533.47 463.734 2532.44 465.802 2533.47C514.407 2536.57 557.841 2566.56 593.001 2597.59C594.035 2598.63 595.07 2599.66 597.138 2600.69C585.762 2561.39 575.421 2507.62 575.421 2441.43Z" fill="#DCD2FE"/>
<path d="M782.249 2344.21C707.791 2324.56 645.743 2298.7 596.104 2273.88C585.763 2286.29 575.421 2299.74 566.114 2312.15C572.319 2321.46 703.654 2490.03 899.107 2466.25C1001.49 2453.84 1069.74 2394.89 1095.59 2370.06C1020.1 2376.27 909.448 2377.3 782.249 2344.21Z" fill="#DCD2FE"/>
<path d="M737.781 2948.19C733.644 2928.54 728.474 2908.89 724.337 2889.24C704.688 2799.26 689.176 2712.39 677.801 2627.58C665.391 2691.7 651.947 2754.79 639.538 2818.91C642.64 2830.29 645.742 2842.7 648.845 2854.07C659.186 2891.31 668.493 2927.5 678.835 2963.7C689.176 2961.63 699.518 2959.56 711.927 2956.46C721.235 2953.36 730.542 2950.25 737.781 2948.19Z" fill="#DCD2FE"/>
<path d="M837.058 3352.56C851.536 3359.8 870.15 3369.11 885.662 3361.87C892.901 3358.77 898.072 3353.59 904.277 3347.39C909.448 3342.22 913.584 3337.05 916.687 3333.94C904.277 3331.88 885.662 3328.77 866.014 3317.4C866.014 3317.4 849.468 3309.12 836.024 3295.68C791.556 3254.31 771.907 3119.86 752.259 3018.51C748.122 2999.9 741.917 2967.84 733.644 2927.5C723.303 2927.5 710.893 2927.5 696.415 2925.43C685.04 2923.36 674.698 2921.3 666.425 2918.19C666.425 2919.23 666.425 2919.23 666.425 2920.26C672.63 2973.01 689.176 3029.89 731.576 3166.4C752.259 3231.56 761.566 3257.41 781.214 3291.54C791.556 3309.12 800.863 3322.57 808.102 3330.84C818.443 3343.25 829.819 3349.46 837.058 3352.56Z" fill="#DCD2FE"/>
<path d="M1235.2 3344.29C1241.41 3353.59 1250.71 3367.04 1267.26 3371.18C1283.81 3375.31 1299.32 3368.07 1305.52 3363.94C1290.01 3340.15 1273.47 3310.16 1260.02 3275C1229 3196.4 1223.83 3124 1224.86 3076.43C1211.42 3076.43 1197.97 3076.43 1182.46 3076.43C1169.02 3077.46 1156.61 3078.5 1144.2 3079.53C1165.91 3144.69 1178.32 3196.4 1187.63 3233.63C1187.63 3234.66 1200.04 3288.44 1235.2 3344.29Z" fill="#DCD2FE"/>
<path d="M662.289 2709.28C662.289 2701.01 662.289 2693.77 661.255 2686.53C650.913 2659.64 637.47 2642.06 628.162 2631.72C616.787 2619.31 605.411 2610 595.07 2601.73C580.592 2589.32 568.182 2581.04 564.046 2577.94C557.841 2573.8 541.295 2563.46 518.544 2552.09C503.031 2544.85 483.383 2536.57 460.632 2529.33C458.564 2535.54 457.529 2541.74 455.461 2548.98C454.427 2553.12 453.393 2557.26 453.393 2560.36C500.963 2566.56 529.919 2585.18 543.363 2595.52C567.148 2614.14 580.592 2634.82 598.172 2662.75C614.718 2688.6 627.128 2714.46 634.367 2728.93C640.572 2742.38 645.743 2753.76 648.845 2760.99C655.05 2749.62 661.255 2732.04 662.289 2709.28Z" fill="#DCE033"/>
<path d="M477.178 1799.18C420.301 1791.95 377.901 1781.6 351.013 1773.33C326.194 1766.09 308.614 1759.89 301.375 1756.78C276.555 1747.47 256.907 1738.17 241.395 1729.89C241.395 1740.24 242.429 1751.61 243.463 1762.99C244.497 1771.26 245.531 1778.5 246.565 1785.74C278.624 1801.25 305.511 1810.56 326.194 1815.73C349.979 1822.97 369.628 1826.07 401.686 1832.28C433.744 1838.48 459.598 1841.59 478.212 1844.69C478.212 1831.25 477.178 1814.7 477.178 1799.18Z" fill="#DCE033"/>
<path d="M1493.74 1779.53C1520.62 1773.33 1543.37 1768.16 1559.92 1764.02C1621.97 1748.51 1641.62 1742.3 1663.33 1731.96C1679.88 1723.69 1692.29 1716.45 1700.56 1711.28C1701.6 1719.55 1702.63 1729.89 1702.63 1741.27C1702.63 1749.54 1701.6 1756.78 1701.6 1762.99C1688.15 1770.23 1668.51 1780.57 1643.69 1789.88C1614.73 1801.25 1590.94 1806.42 1566.13 1812.63C1547.51 1816.77 1522.69 1821.94 1492.7 1827.11C1493.74 1810.56 1493.74 1795.05 1493.74 1779.53Z" fill="#DCE033"/>
<path d="M558.875 1656.46C549.567 1668.87 537.158 1685.42 527.851 1710.24C523.714 1720.59 514.407 1747.47 514.407 1783.67C514.407 1827.11 527.851 1858.13 538.192 1881.92C550.602 1909.84 566.114 1943.97 601.274 1973.97C643.674 2009.13 688.142 2017.4 704.688 2020.5C727.439 2024.64 770.873 2028.78 773.976 2019.47C779.146 2002.92 656.084 1985.34 602.309 1890.19C581.626 1854 577.489 1816.77 575.421 1799.18C573.353 1774.36 570.25 1723.69 596.104 1664.74C609.547 1633.71 627.128 1611.99 639.537 1597.51C631.264 1599.58 618.855 1602.69 605.411 1610.96C583.694 1623.37 572.318 1638.88 558.875 1656.46Z" fill="#9779FC"/>
<path d="M613.684 924.248C644.708 1005.95 673.664 1064.9 707.79 1135.23C742.951 1205.55 775.01 1264.5 799.829 1308.97C794.658 1318.28 788.453 1329.66 778.112 1341.03C761.566 1360.68 742.951 1373.09 730.542 1380.33C692.278 1388.61 655.049 1397.91 616.786 1406.19C595.069 1392.74 573.352 1378.26 550.601 1360.68C510.27 1330.69 476.143 1299.66 447.188 1270.71C413.061 1229.34 378.934 1187.97 344.808 1146.6C292.067 1062.83 260.008 991.471 241.394 940.795C219.677 883.914 211.404 846.682 207.267 810.485C206.233 799.109 203.131 761.877 208.302 713.27C214.506 659.491 219.677 608.815 253.804 561.242C269.316 539.523 292.067 507.463 334.466 498.155C383.071 486.779 424.437 513.668 433.744 519.873C463.734 540.558 477.178 569.515 480.28 575.72C488.553 594.336 489.587 606.747 504.065 641.91C510.27 656.388 515.441 665.696 517.509 669.833C543.362 721.543 588.865 857.024 613.684 924.248Z" fill="#BAA5FD"/>
<path d="M525.782 1456.86C547.499 1467.2 574.387 1468.24 598.172 1468.24C626.094 1468.24 654.016 1465.14 680.903 1458.93C725.371 1448.59 778.112 1441.35 810.171 1405.15C827.751 1385.5 841.195 1358.61 848.434 1332.76C855.673 1307.94 858.775 1288.29 841.195 1268.64C822.58 1247.95 802.932 1238.65 776.044 1234.51C768.805 1233.47 762.6 1232.44 756.395 1231.41C759.498 1236.58 761.566 1241.75 764.668 1246.92C771.907 1260.36 782.249 1271.74 789.488 1285.18C802.932 1310.01 784.317 1334.83 765.703 1350.34C746.054 1366.89 722.269 1375.16 698.484 1383.43C650.913 1398.95 596.104 1422.73 546.465 1404.12C523.714 1395.84 509.236 1378.26 493.724 1361.72C489.588 1376.19 488.553 1390.67 492.69 1407.22C496.827 1425.84 507.168 1447.56 525.782 1456.86Z" fill="#9779FC"/>
<path d="M485.451 2568.63C469.939 2566.56 457.529 2569.67 449.256 2572.77C444.085 2617.24 437.881 2661.71 432.71 2706.18C437.881 2745.48 443.051 2785.82 448.222 2825.12C462.7 2860.28 478.212 2894.41 492.69 2929.57C511.304 2944.05 529.919 2958.53 549.567 2973.01C566.114 2969.9 582.66 2966.8 600.24 2963.7C609.548 2939.91 617.821 2914.06 626.094 2886.13C638.503 2841.66 645.742 2800.29 649.879 2763.06C633.333 2729.97 616.787 2696.87 599.206 2664.81C580.592 2636.89 561.977 2617.24 547.499 2604.83C525.782 2586.21 510.27 2571.74 485.451 2568.63Z" fill="#9779FC"/>
<path d="M1556.82 2621.38C1570.26 2633.79 1583.71 2648.27 1596.12 2661.71C1596.12 2632.75 1596.12 2603.8 1596.12 2575.87C1596.12 2541.74 1589.91 2508.65 1583.71 2475.55C1570.26 2483.83 1559.92 2490.03 1552.68 2495.2C1502.01 2529.33 1487.53 2548.98 1481.33 2558.29C1478.22 2563.46 1475.12 2567.6 1474.09 2570.7C1505.11 2581.04 1532 2599.66 1556.82 2621.38Z" fill="#9779FC"/>
<path d="M1409.97 1394.81C1388.25 1408.26 1365.5 1409.29 1337.58 1407.22C1269.33 1404.12 1234.17 1403.08 1192.8 1385.5C1171.08 1376.19 1126.62 1356.55 1099.73 1314.14C1082.15 1286.22 1083.18 1267.6 1084.22 1261.4C1085.25 1256.23 1087.32 1241.75 1099.73 1229.34C1109.04 1220.03 1120.41 1216.93 1124.55 1215.89C1139.03 1212.79 1150.4 1214.86 1155.57 1216.93C1151.44 1237.61 1147.3 1257.26 1143.16 1277.95C1150.4 1285.18 1159.71 1293.46 1173.15 1302.77C1173.15 1302.77 1202.11 1323.45 1240.37 1335.86C1304.49 1356.55 1370.67 1345.17 1389.29 1342.07C1394.46 1324.48 1398.6 1306.9 1403.77 1289.32C1407.9 1291.39 1424.45 1296.56 1434.79 1314.14C1436.86 1318.28 1447.2 1334.83 1442.03 1355.51C1436.86 1378.26 1418.24 1389.64 1409.97 1394.81Z" fill="#9779FC"/>
<path d="M1504.08 748.433C1474.09 776.356 1432.72 817.724 1394.46 875.64C1361.37 925.282 1342.75 965.616 1312.76 1032.84C1276.57 1115.58 1255.88 1179.7 1247.61 1204.52C1233.13 1252.09 1222.79 1293.46 1215.55 1325.52C1227.96 1333.79 1248.64 1345.17 1277.6 1350.34C1309.66 1356.55 1335.51 1352.41 1351.02 1349.31C1365.5 1349.31 1378.95 1349.31 1393.42 1349.31C1397.56 1323.45 1403.77 1298.63 1412.04 1273.81C1424.45 1234.51 1437.89 1196.24 1455.47 1157.98C1503.04 1052.49 1561.99 980.094 1593.01 943.897C1597.15 938.726 1601.29 934.589 1603.35 931.487C1599.22 925.282 1574.4 882.879 1569.23 875.64C1545.44 837.374 1540.27 829.101 1534.07 815.656C1526.83 801.177 1515.45 778.425 1504.08 748.433Z" fill="#BAA5FD"/>
<path d="M545.431 1416.53C543.363 1416.53 541.294 1415.5 539.226 1414.46C249.667 1183.83 82.137 974.924 52.147 809.452C51.1129 802.212 48.0104 784.631 42.8397 750.502L41.8056 746.365C20.0887 602.611 1.4742 471.267 0.440063 324.41C0.440063 269.597 2.50834 219.955 32.4984 174.45C50.0787 147.561 69.7273 134.116 107.99 106.192C188.653 48.2769 258.975 25.5244 293.101 15.1823L297.238 14.1481C326.194 4.84026 360.32 -3.43338 393.413 2.77185C451.324 14.1481 488.553 64.8241 505.1 108.261C522.68 157.903 523.714 211.681 523.714 260.289C523.714 327.512 522.68 382.325 520.612 430.933C518.543 511.601 516.475 570.55 525.782 628.466C530.953 658.458 539.226 697.757 569.216 785.665C627.128 951.138 707.791 1124.88 809.136 1302.77C812.239 1307.94 810.171 1314.14 805 1316.21C799.829 1319.31 793.624 1317.25 791.556 1312.08C689.176 1133.16 608.513 958.377 550.602 791.87C519.578 702.928 511.305 662.594 506.134 631.568C496.827 571.584 498.895 509.532 500.963 429.898C501.997 381.291 504.066 326.478 504.066 259.255C504.066 210.647 503.031 159.971 486.485 114.466C472.007 76.2004 439.949 30.6954 390.31 21.3875C361.354 16.2165 330.33 23.4559 303.443 31.7296L298.272 32.7638C265.18 43.1058 195.892 64.8241 119.366 119.637C82.137 146.526 64.5566 159.971 49.0446 182.723C21.1228 224.092 20.0887 268.562 20.0887 321.307C21.1228 470.232 39.7373 600.542 62.4884 742.228L63.5225 746.365C68.6932 780.494 71.7956 798.075 72.8298 805.315C100.751 965.617 267.248 1170.39 552.67 1397.91C556.807 1401.02 557.841 1408.26 554.738 1412.39C551.636 1415.5 548.533 1416.53 545.431 1416.53Z" fill="#231F20"/>
<path d="M582.66 1418.6C567.148 1418.6 550.602 1417.56 535.09 1415.49C529.919 1414.46 525.782 1409.29 525.782 1404.12C526.817 1398.95 530.953 1394.81 537.158 1394.81C586.797 1401.02 637.469 1396.88 685.04 1383.43C719.166 1374.13 743.986 1361.72 762.6 1345.17C785.351 1324.48 796.727 1296.56 793.624 1271.74C792.59 1266.57 796.727 1261.4 801.897 1260.36C807.068 1259.33 812.239 1263.47 813.273 1268.64C817.41 1299.66 802.932 1334.83 776.044 1359.65C755.361 1378.26 727.439 1392.74 690.21 1403.08C656.084 1414.46 619.889 1418.6 582.66 1418.6Z" fill="#231F20"/>
<path d="M607.479 1475.48C590.933 1475.48 573.353 1474.44 553.704 1471.34C518.543 1466.17 500.963 1457.9 491.656 1443.42C475.11 1416.53 488.553 1382.4 493.724 1373.09C495.792 1367.92 501.997 1365.85 507.168 1367.92C512.339 1369.99 514.407 1376.19 512.339 1381.37C510.27 1386.54 497.861 1413.43 509.236 1432.04C513.373 1439.28 522.68 1445.49 556.806 1450.66C615.752 1458.93 664.357 1449.62 673.664 1447.56C720.2 1437.21 764.668 1427.91 801.897 1390.67C820.512 1372.06 854.638 1337.93 845.331 1300.7C838.092 1269.67 803.966 1245.89 760.532 1241.75C755.361 1240.71 751.225 1236.58 751.225 1230.37C752.259 1225.2 757.429 1221.06 762.6 1221.06C814.307 1227.27 854.638 1257.26 864.98 1295.53C877.389 1344.13 836.024 1385.5 816.375 1405.15C775.01 1446.52 727.439 1456.86 677.801 1467.21C667.459 1470.31 641.606 1475.48 607.479 1475.48Z" fill="#231F20"/>
<path d="M1149.37 1287.25H1148.33C1143.16 1286.22 1139.03 1282.08 1139.03 1275.88C1159.71 1080.41 1214.52 894.256 1301.39 722.578C1339.65 647.081 1384.12 574.686 1434.79 505.395L1435.82 503.326C1452.37 488.847 1469.95 476.437 1488.57 466.095C1508.21 454.719 1524.76 448.513 1532 445.411C1655.06 397.837 1716.08 387.495 1769.85 378.187C1780.19 376.119 1791.57 374.051 1801.91 371.982C1815.35 368.88 1828.8 367.845 1841.21 373.016C1851.55 377.153 1858.79 385.427 1864.99 391.632L2103.88 639.841C2129.73 666.731 2155.59 693.62 2172.13 727.749C2197.98 780.493 2197.99 846.682 2175.23 928.384C2157.65 989.402 2134.9 1032.84 2104.91 1064.9C2043.9 1131.09 1940.48 1155.91 1843.28 1129.02C1740.9 1101.1 1680.92 1036.98 1621.97 967.684C1561.99 897.358 1518.56 815.656 1490.63 725.68C1488.57 720.509 1491.67 714.304 1496.84 713.27C1502.01 711.201 1508.21 714.304 1509.25 720.509C1536.14 808.417 1578.54 887.016 1636.45 956.308C1692.29 1022.5 1751.24 1084.55 1847.41 1110.4C1936.35 1134.19 2033.56 1111.44 2089.4 1051.45C2118.36 1021.46 2139.04 980.095 2155.59 923.213C2178.34 845.648 2177.3 784.63 2154.55 736.022C2139.04 703.962 2114.22 678.107 2090.43 653.286L1851.55 405.077C1846.38 399.906 1841.21 393.701 1835 391.632C1826.73 388.53 1817.42 389.564 1807.08 391.632C1796.74 393.701 1785.36 395.769 1775.02 397.837C1722.28 407.145 1661.27 417.487 1541.31 464.026C1534.07 467.129 1519.59 472.3 1499.94 483.676C1482.36 492.984 1465.81 505.395 1451.34 517.805C1401.7 585.028 1358.26 656.389 1321.04 730.851C1235.2 900.461 1181.43 1083.52 1160.74 1276.91C1158.68 1283.12 1154.54 1287.25 1149.37 1287.25Z" fill="#231F20"/>
<path d="M1389.29 1351.37C1388.25 1351.37 1387.22 1351.37 1387.22 1351.37C1382.05 1350.34 1378.95 1344.13 1379.98 1338.96C1398.6 1262.43 1426.52 1187.97 1462.71 1117.64C1497.87 1049.39 1541.31 984.231 1591.98 926.316C1596.12 922.179 1602.32 921.145 1606.46 925.281C1610.59 929.418 1611.63 935.624 1607.49 939.76C1557.85 996.642 1515.45 1059.73 1480.29 1126.95C1445.13 1195.21 1417.21 1268.64 1399.63 1343.1C1398.6 1348.27 1394.46 1351.37 1389.29 1351.37Z" fill="#231F20"/>
<path d="M1329.31 1360.68C1301.39 1360.68 1275.53 1357.58 1250.71 1350.34C1195.9 1334.83 1149.37 1302.77 1119.38 1259.33C1116.28 1254.16 1117.31 1247.95 1122.48 1244.85C1127.65 1241.75 1133.86 1242.78 1136.96 1247.95C1162.81 1287.25 1206.25 1317.25 1256.92 1330.69C1301.39 1343.1 1353.09 1343.1 1405.83 1331.72C1411 1330.69 1417.21 1333.79 1418.24 1338.96C1419.28 1344.13 1416.18 1350.34 1411 1351.37C1382.05 1357.58 1355.16 1360.68 1329.31 1360.68Z" fill="#231F20"/>
<path d="M1312.76 1417.56C1232.1 1417.56 1175.22 1386.54 1156.61 1376.19C1114.21 1352.41 1098.69 1331.72 1091.46 1318.28C1083.18 1303.8 1063.53 1269.67 1082.15 1239.68C1095.59 1216.93 1125.58 1205.55 1157.64 1210.72C1162.81 1211.76 1166.95 1216.93 1165.91 1222.1C1164.88 1227.27 1159.71 1231.41 1154.54 1230.37C1130.75 1226.23 1108 1234.51 1099.73 1248.99C1087.32 1268.64 1102.83 1295.53 1110.07 1307.94C1116.28 1319.31 1129.72 1336.89 1167.98 1357.58C1187.63 1368.96 1241.41 1397.91 1321.03 1396.88C1355.16 1395.84 1417.21 1394.81 1431.69 1363.78C1437.89 1349.31 1433.76 1330.69 1432.72 1326.55C1426.52 1304.83 1409.97 1293.46 1403.77 1290.36C1398.59 1287.25 1397.56 1281.05 1399.63 1276.91C1402.73 1271.74 1408.94 1270.71 1413.07 1272.77C1421.35 1277.95 1443.06 1292.42 1451.34 1321.38C1453.4 1328.62 1459.61 1351.37 1449.27 1372.06C1429.62 1414.46 1359.3 1416.53 1321.03 1416.53C1316.9 1417.56 1314.83 1417.56 1312.76 1417.56Z" fill="#231F20"/>
<path d="M760.532 1242.78C756.395 1242.78 752.259 1239.68 751.225 1235.54C750.19 1230.37 753.293 1224.17 758.464 1223.13C825.683 1205.55 896.004 1195.21 965.291 1194.17C1029.41 1193.14 1094.56 1198.31 1157.64 1211.76C1162.81 1212.79 1166.95 1217.96 1165.91 1224.17C1164.88 1230.37 1159.71 1233.47 1153.5 1232.44C1091.46 1220.03 1028.37 1214.86 965.291 1215.89C897.038 1216.93 828.785 1226.24 762.6 1243.82C762.6 1242.78 761.566 1242.78 760.532 1242.78Z" fill="#231F20"/>
<path d="M1629.21 1614.06C1625.07 1614.06 1620.94 1610.96 1619.9 1606.82L1617.83 1600.62C1567.16 1435.14 1459.61 1335.86 1400.66 1291.39C1396.53 1288.29 1395.49 1282.08 1398.6 1276.91C1401.7 1272.77 1407.9 1271.74 1413.07 1274.84C1475.12 1321.38 1585.77 1423.77 1637.48 1594.41L1639.55 1600.62C1640.58 1605.79 1637.48 1611.99 1632.31 1613.03C1630.24 1614.06 1629.21 1614.06 1629.21 1614.06Z" fill="#231F20"/>
<path d="M1007.69 2383.51C952.881 2383.51 891.867 2378.34 825.682 2363.86C764.668 2350.42 662.288 2328.7 555.772 2255.27C421.334 2163.22 348.944 2040.15 312.75 1953.28C310.681 1948.11 312.75 1941.9 317.92 1939.84C323.091 1937.77 329.296 1939.84 331.364 1945.01C366.525 2029.81 436.846 2148.75 567.148 2238.72C670.562 2309.05 766.736 2330.77 829.819 2344.21C1014.93 2384.54 1165.91 2350.42 1222.79 2334.9C1264.16 2322.49 1328.27 2304.91 1398.6 2258.37C1498.91 2192.18 1575.43 2088.76 1613.7 1965.69C1617.83 1952.25 1621.97 1938.8 1625.07 1925.36C1626.11 1920.19 1632.31 1917.08 1637.48 1918.12C1642.65 1919.15 1646.79 1925.36 1644.72 1930.53C1641.62 1945.01 1637.48 1958.45 1633.34 1972.93C1594.05 2100.14 1514.42 2207.7 1409.97 2275.95C1337.58 2323.53 1272.43 2342.14 1229 2354.55C1190.73 2364.89 1111.1 2383.51 1007.69 2383.51Z" fill="#231F20"/>
<path d="M317.921 1629.58C316.887 1629.58 315.853 1629.58 314.819 1629.58C309.648 1627.51 306.545 1622.34 308.614 1617.16C357.218 1466.17 457.53 1367.92 477.178 1349.31C481.315 1345.17 487.52 1346.2 491.656 1350.34C495.793 1354.48 494.759 1360.68 490.622 1364.82C472.008 1382.4 374.799 1477.55 328.262 1623.37C326.194 1626.47 322.057 1629.58 317.921 1629.58Z" fill="#231F20"/>
<path d="M1208.31 2038.09C1175.22 2038.09 1141.09 2032.91 1109.04 2027.74C1083.18 2023.61 1055.26 2019.47 1028.37 2018.44C983.906 2016.37 937.37 2022.57 891.867 2027.74C818.444 2037.05 742.952 2046.36 671.596 2021.54C580.592 1989.48 491.656 1876.75 506.134 1758.85C518.543 1659.57 606.445 1580.97 682.971 1549.94C690.21 1546.84 695.381 1544.77 701.586 1542.7C788.454 1513.74 970.462 1453.76 1173.15 1502.37C1271.4 1526.15 1351.03 1549.94 1412.04 1627.51C1467.88 1697.83 1481.33 1801.25 1445.13 1885.02C1408.94 1968.79 1326.21 2027.74 1235.2 2037.05C1227.96 2038.09 1217.62 2038.09 1208.31 2038.09ZM1008.73 1997.75C1015.96 1997.75 1022.17 1997.75 1029.41 1997.75C1057.33 1998.79 1085.25 2002.92 1112.14 2008.09C1154.54 2014.3 1193.84 2020.5 1234.17 2016.37C1316.9 2008.09 1394.46 1952.25 1427.55 1875.72C1460.64 1799.18 1449.27 1704.04 1397.56 1638.88C1340.68 1566.49 1264.16 1542.7 1170.05 1520.98C972.53 1473.41 794.658 1532.36 708.825 1560.28C702.62 1562.35 697.449 1564.42 691.245 1566.49C619.889 1595.45 537.158 1668.87 526.817 1759.88C513.373 1866.41 596.104 1972.93 678.835 2000.85C746.054 2023.61 815.341 2015.33 889.799 2006.03C929.096 2002.92 969.428 1997.75 1008.73 1997.75Z" fill="#231F20"/>
<path d="M831.887 1778.5C809.136 1802.29 812.238 1854 834.989 1883.99C843.263 1895.37 850.502 1898.47 854.638 1898.47C869.116 1901.57 881.526 1890.19 883.594 1888.13C900.14 1871.58 897.038 1844.69 893.935 1817.8C891.867 1798.15 888.765 1779.53 875.321 1771.26C866.014 1765.06 854.638 1767.12 853.604 1767.12C842.228 1768.16 834.989 1775.4 831.887 1778.5Z" fill="#231F20"/>
<path d="M1159.71 1774.36C1182.46 1798.15 1179.36 1849.86 1156.61 1879.85C1148.33 1891.23 1141.1 1894.33 1136.96 1894.33C1122.48 1897.43 1110.07 1886.06 1108 1883.99C1091.46 1867.44 1094.56 1840.55 1097.66 1813.66C1099.73 1794.01 1102.83 1775.4 1116.28 1767.12C1125.58 1760.92 1136.96 1762.99 1137.99 1762.99C1149.37 1764.02 1156.61 1771.26 1159.71 1774.36Z" fill="#231F20"/>
<path d="M837.059 2033.95C806.035 2032.91 700.552 2023.61 626.094 1933.63C572.319 1869.51 550.602 1794.01 564.046 1720.58C585.763 1604.75 682.972 1552.01 702.621 1541.67C707.791 1539.6 713.996 1541.67 716.064 1546.84C718.133 1552.01 716.064 1558.21 710.894 1560.28C699.518 1565.45 603.343 1615.1 583.695 1724.72C571.285 1791.94 591.968 1861.24 641.606 1920.19C710.894 2002.92 809.137 2012.23 837.059 2013.26C842.229 2013.26 847.4 2018.44 847.4 2023.61C846.366 2029.81 842.229 2033.95 837.059 2033.95Z" fill="#231F20"/>
<path d="M517.51 2007.06C516.475 2007.06 516.475 2007.06 515.441 2007.06C482.349 2006.02 418.232 1990.51 330.331 1961.55L328.262 1960.52C316.887 1957.42 309.648 1954.31 304.477 1953.28C291.033 1949.14 287.931 1948.11 280.692 1942.94C263.112 1929.49 247.599 1908.81 236.224 1794.01C231.053 1742.3 227.951 1682.32 249.668 1622.34C253.804 1611.99 262.077 1587.17 281.726 1584.07C296.204 1582 305.511 1592.34 314.818 1603.72C321.023 1610.96 329.296 1620.27 340.672 1629.57C374.799 1655.43 420.301 1660.6 436.847 1662.67C444.086 1663.7 450.291 1663.7 456.495 1664.74C473.042 1665.77 486.485 1666.81 494.759 1679.22C504.066 1692.66 500.963 1707.14 496.827 1724.72C495.793 1728.86 494.759 1732.99 493.724 1738.17C493.724 1738.17 485.451 1780.57 489.588 1822.97C493.724 1864.34 514.407 1920.19 531.988 1953.28C538.192 1964.66 549.568 1985.34 538.192 1998.79C531.988 2006.02 521.646 2007.06 517.51 2007.06ZM284.828 1603.72C281.726 1604.75 275.521 1608.89 269.316 1628.54C248.634 1685.42 251.736 1742.3 256.907 1791.94C266.214 1898.47 279.658 1916.05 293.102 1926.39C297.238 1929.49 298.272 1929.49 310.682 1933.63C316.887 1935.7 324.126 1937.77 335.501 1940.87L337.57 1941.9C452.359 1979.14 498.895 1985.34 516.475 1986.38C521.646 1986.38 522.68 1985.34 522.68 1985.34C522.68 1984.31 523.714 1980.17 514.407 1962.59C495.793 1927.43 473.042 1869.51 468.905 1822.97C464.769 1777.47 473.042 1732.99 474.076 1731.96C475.11 1726.79 476.144 1722.65 477.178 1718.52C481.315 1703 482.349 1694.73 479.246 1689.56C476.144 1685.42 470.973 1684.39 455.461 1683.35C449.256 1683.35 443.052 1682.32 434.779 1681.28C416.164 1679.22 366.525 1673.01 328.262 1644.05C314.818 1633.71 305.511 1623.37 299.306 1615.1C292.067 1608.89 287.931 1603.72 284.828 1603.72Z" fill="#231F20"/>
<path d="M999.418 2383.51C994.247 2383.51 989.076 2379.37 989.076 2374.2L976.667 2017.4C976.667 2012.23 980.803 2007.06 985.974 2007.06C991.145 2007.06 996.315 2011.2 996.315 2016.37L1008.73 2373.17C1009.76 2378.34 1004.59 2383.51 999.418 2383.51Z" fill="#231F20"/>
<path d="M1031.48 2380.41C1027.34 2380.41 1025.27 2377.3 1024.24 2374.2L1012.86 2017.4C1012.86 2013.26 1015.96 2010.16 1019.07 2010.16C1022.17 2010.16 1026.31 2013.26 1026.31 2016.37L1038.71 2373.17C1037.68 2377.3 1035.61 2380.41 1031.48 2380.41Z" fill="#231F20"/>
<path d="M571.285 2261.47C523.714 2351.45 487.52 2446.6 464.769 2544.85C452.359 2594.49 444.086 2644.13 442.018 2694.81C439.949 2745.48 444.086 2795.12 459.598 2842.7C467.871 2866.48 478.212 2889.24 491.656 2909.92C505.1 2930.6 520.612 2950.25 542.329 2959.56C563.012 2968.87 589.899 2965.77 601.275 2947.15C607.48 2937.84 610.582 2926.47 612.65 2914.06L620.924 2876.83L682.972 2576.91C684.006 2573.8 687.108 2571.74 690.211 2571.74C693.313 2572.77 695.381 2575.87 695.381 2578.98L635.401 2878.89L628.163 2916.13C625.06 2928.54 622.992 2941.98 614.719 2954.39C607.48 2966.8 593.002 2976.11 578.524 2978.18C564.046 2981.28 549.568 2979.21 537.158 2973.01C511.305 2961.63 493.724 2938.88 479.247 2917.16C464.769 2895.44 453.393 2871.66 445.12 2846.83C428.574 2797.19 424.437 2744.45 426.505 2692.74C428.574 2641.03 436.847 2589.32 449.257 2539.68C472.008 2439.36 508.202 2342.14 555.773 2251.13C557.841 2245.96 564.046 2243.89 569.217 2247C572.319 2250.1 574.387 2256.3 571.285 2261.47Z" fill="#231F20"/>
<path d="M646.777 2816.84C666.425 2887.17 684.006 2958.53 699.518 3029.89V3031.96L709.859 3073.32C713.996 3087.8 717.098 3102.28 721.235 3115.73C729.508 3143.65 737.781 3171.57 748.122 3199.5C758.464 3227.42 768.805 3254.31 782.249 3279.13C789.488 3291.54 796.727 3303.95 805 3315.33C813.273 3326.7 823.614 3334.98 836.024 3342.22C847.4 3348.42 861.877 3353.59 874.287 3353.59C886.697 3354.63 894.97 3348.42 902.209 3337.05C916.687 3314.29 923.926 3285.34 932.199 3257.41C936.335 3242.93 939.438 3229.49 943.574 3215.01L952.882 3171.57L971.496 3085.73L973.564 3077.46H980.803L1250.71 3065.05C1253.82 3065.05 1256.92 3067.12 1256.92 3071.26C1256.92 3074.36 1254.85 3077.46 1250.71 3077.46L980.803 3097.11L990.111 3088.84L971.496 3175.71L962.189 3219.15C958.052 3233.63 954.95 3248.1 950.813 3262.58C946.677 3277.06 942.54 3291.54 937.37 3304.99C932.199 3319.46 927.028 3332.91 917.721 3347.39C913.584 3354.63 907.38 3360.83 899.106 3366C890.833 3371.17 881.526 3373.24 872.219 3372.21C854.639 3371.17 841.195 3366 826.717 3357.73C813.273 3350.49 800.863 3339.11 791.556 3326.7C782.249 3314.29 773.976 3300.85 766.737 3288.44C752.259 3261.55 741.917 3233.63 731.576 3205.7C721.235 3177.78 712.962 3148.82 704.688 3120.9C700.552 3106.42 697.449 3091.94 693.313 3077.46L688.142 3055.74L686.074 3044.37L685.04 3039.19L684.006 3036.09C684.006 3035.06 682.971 3032.99 682.971 3031.96V3034.02C668.494 2962.66 650.913 2892.34 632.299 2822.01C631.265 2817.87 633.333 2813.74 637.469 2812.7C641.606 2810.64 645.743 2812.7 646.777 2816.84Z" fill="#231F20"/>
<path d="M1280.7 3377.38C1273.46 3377.38 1266.23 3376.35 1260.02 3374.28C1238.3 3367.04 1226.93 3349.46 1218.66 3336.01C1181.43 3269.82 1145.23 3126.07 1134.89 3082.63C1133.86 3077.46 1136.96 3071.26 1142.13 3070.22C1147.3 3069.19 1153.5 3072.29 1154.54 3077.46C1164.88 3119.86 1200.04 3261.55 1236.24 3324.64C1242.44 3336.01 1251.75 3348.42 1266.23 3354.63C1291.05 3363.94 1320 3344.29 1325.17 3341.18C1365.5 3312.23 1371.71 3252.24 1373.78 3230.52C1383.08 3128.14 1397.56 2870.62 1409.97 2528.3C1409.97 2523.13 1415.14 2518.99 1420.31 2518.99C1425.48 2518.99 1430.65 2524.16 1429.62 2529.33C1417.21 2871.66 1402.73 3129.17 1393.42 3232.59C1391.36 3257.41 1385.15 3323.6 1336.55 3358.77C1329.31 3362.9 1306.56 3377.38 1280.7 3377.38Z" fill="#231F20"/>
<path d="M1399.63 3139.51C1394.46 3139.51 1389.29 3135.38 1389.29 3129.17C1389.29 3124 1393.42 3118.83 1399.63 3118.83C1435.82 3117.8 1525.79 3109.52 1590.95 3038.16C1680.92 2939.91 1647.82 2802.36 1635.41 2762.03C1629.21 2740.31 1611.63 2683.43 1556.82 2633.79C1509.25 2591.39 1457.54 2574.84 1422.38 2568.63C1417.21 2567.6 1413.07 2562.43 1414.11 2557.26C1415.14 2552.09 1420.31 2547.95 1425.48 2548.98C1462.71 2556.22 1518.56 2573.8 1569.23 2619.31C1628.17 2672.05 1646.79 2733.07 1654.03 2755.82C1667.47 2798.23 1702.63 2945.08 1605.42 3051.61C1535.1 3129.17 1437.89 3138.48 1399.63 3139.51Z" fill="#231F20"/>
<path d="M1596.12 2672.05C1589.91 2672.05 1585.77 2666.88 1585.77 2661.71C1586.81 2598.62 1581.64 2535.54 1568.19 2475.55C1560.96 2442.46 1552.68 2409.36 1541.31 2377.3C1522.69 2324.56 1498.91 2272.85 1470.99 2224.24C1467.88 2219.07 1469.95 2212.87 1474.09 2210.8C1479.26 2207.69 1485.46 2209.76 1487.53 2213.9C1517.52 2263.54 1541.31 2316.29 1559.92 2371.1C1571.3 2404.19 1580.6 2437.29 1587.84 2471.42C1600.25 2533.47 1606.46 2597.59 1605.42 2662.74C1606.46 2666.88 1601.29 2672.05 1596.12 2672.05Z" fill="#231F20"/>
<path d="M460.631 2553.12C486.485 2557.26 510.27 2566.56 530.953 2581.04C551.636 2594.49 570.25 2612.07 585.762 2631.72C616.786 2671.02 636.435 2715.49 655.049 2759.96C657.118 2764.1 655.049 2768.23 650.913 2769.27C646.776 2770.3 642.64 2769.27 641.606 2765.13C621.957 2721.69 601.274 2678.26 571.284 2642.06C541.294 2606.9 500.963 2577.94 456.495 2572.77C451.324 2571.74 447.188 2566.56 447.188 2561.39C449.256 2556.22 454.427 2552.09 460.631 2553.12C460.631 2552.09 459.597 2552.09 460.631 2553.12Z" fill="#231F20"/>
<path d="M1474.09 2583.11C1473.05 2583.11 1470.99 2583.11 1469.95 2582.08C1464.78 2580.01 1462.71 2573.8 1465.81 2568.63C1477.19 2544.85 1493.74 2525.2 1513.39 2508.65C1529.93 2494.17 1549.58 2483.83 1570.26 2476.59C1575.43 2474.52 1581.64 2477.62 1583.71 2482.79C1585.77 2487.97 1582.67 2494.17 1577.5 2496.24C1558.89 2503.48 1542.34 2512.79 1526.83 2525.2C1509.25 2539.68 1494.77 2558.29 1484.43 2578.98C1481.33 2581.04 1478.22 2583.11 1474.09 2583.11Z" fill="#231F20"/>
<path d="M679.869 2974.04C675.733 2974.04 671.596 2970.94 669.528 2965.77C668.494 2960.6 671.596 2954.39 676.767 2953.36C801.898 2924.4 930.131 2906.82 1058.36 2902.68C1173.15 2898.54 1288.98 2905.78 1402.73 2922.33C1407.9 2923.37 1412.04 2928.54 1411.01 2933.71C1409.97 2938.88 1404.8 2943.01 1399.63 2941.98C1286.91 2925.43 1173.15 2919.23 1059.4 2922.33C932.199 2926.47 806.034 2943.01 681.937 2971.97C680.903 2974.04 679.869 2974.04 679.869 2974.04Z" fill="#231F20"/>
<path d="M238.292 1737.13C270.35 1758.85 307.579 1771.26 344.808 1779.53C386.173 1788.84 427.539 1797.12 469.939 1805.39C478.212 1807.46 482.348 1794.01 473.041 1791.95C432.71 1783.67 391.344 1776.43 351.013 1767.12C313.784 1758.85 276.555 1746.44 244.496 1724.72C237.258 1720.58 231.053 1731.96 238.292 1737.13Z" fill="#231F20"/>
<path d="M243.463 1789.88C313.784 1833.31 396.516 1839.52 476.144 1852.96C484.417 1854 488.554 1841.59 479.247 1839.52C401.686 1826.07 317.921 1820.9 249.668 1777.47C242.429 1773.33 236.224 1784.71 243.463 1789.88Z" fill="#231F20"/>
<path d="M1463.75 1983.27C1454.44 1983.27 1447.2 1980.17 1443.06 1973.97C1433.76 1960.52 1444.1 1939.84 1448.23 1929.49C1464.78 1895.37 1482.36 1839.52 1485.46 1798.15C1488.57 1754.71 1481.33 1713.35 1481.33 1712.31C1480.29 1707.14 1479.26 1703 1478.22 1698.87C1474.09 1681.29 1472.02 1666.81 1479.26 1653.36C1487.53 1640.95 1499.94 1639.92 1514.42 1638.88C1519.59 1638.88 1524.76 1637.85 1530.97 1636.81C1545.44 1634.75 1584.74 1629.57 1613.7 1603.72C1624.04 1595.45 1630.24 1585.1 1636.45 1577.86C1644.72 1566.49 1652.99 1555.11 1666.44 1558.21C1681.95 1561.32 1690.22 1578.9 1695.39 1596.48C1714.01 1657.5 1711.94 1716.45 1707.8 1768.16C1698.5 1882.95 1685.05 1902.6 1669.54 1917.08C1663.34 1922.25 1659.2 1924.32 1647.82 1927.43C1642.65 1929.49 1636.45 1931.56 1627.14 1934.67L1625.07 1935.7C1547.51 1964.66 1491.67 1980.17 1462.71 1981.2C1464.78 1983.27 1464.78 1983.27 1463.75 1983.27ZM1460.64 1962.59C1460.64 1962.59 1461.68 1962.59 1464.78 1962.59C1480.29 1962.59 1520.62 1956.38 1620.94 1918.12L1623 1917.08C1632.31 1912.95 1639.55 1910.88 1644.72 1908.81C1655.06 1904.67 1656.1 1904.67 1659.2 1901.57C1670.57 1891.23 1681.95 1872.61 1691.26 1766.09C1695.39 1716.45 1697.46 1659.57 1679.88 1601.65C1672.64 1579.93 1668.51 1577.86 1666.44 1576.83C1664.37 1577.86 1659.2 1584.07 1656.1 1589.24C1649.89 1597.51 1642.65 1607.86 1630.24 1618.2C1596.12 1647.16 1552.68 1653.36 1536.14 1655.43C1528.9 1656.46 1523.73 1656.46 1517.52 1657.5C1504.08 1658.53 1500.98 1659.57 1497.87 1662.67C1494.77 1667.84 1495.8 1677.15 1498.91 1692.66C1499.94 1696.8 1500.98 1700.93 1502.01 1706.11C1502.01 1708.17 1510.28 1751.61 1506.15 1797.12C1502.01 1842.62 1483.4 1900.54 1466.85 1934.67C1458.58 1957.42 1459.61 1961.55 1460.64 1962.59Z" fill="#231F20"/>
<path d="M1700.56 1701.97C1673.68 1722.65 1641.62 1735.06 1609.56 1743.34C1574.4 1752.65 1538.2 1759.89 1502.01 1768.16C1493.74 1770.23 1496.84 1782.64 1505.11 1781.6C1542.34 1773.33 1578.54 1766.09 1615.76 1755.75C1648.86 1746.44 1680.92 1734.03 1707.8 1713.35C1714.01 1708.17 1707.8 1696.8 1700.56 1701.97Z" fill="#231F20"/>
<path d="M1696.43 1753.68C1637.48 1796.08 1565.09 1802.29 1495.8 1815.73C1487.53 1817.8 1490.63 1830.21 1498.91 1829.18C1569.23 1815.73 1642.65 1808.49 1702.63 1766.09C1709.87 1760.92 1703.67 1748.51 1696.43 1753.68Z" fill="#231F20"/>
<path d="M175.209 510.566C153.492 593.302 166.936 680.175 186.585 761.877C198.994 811.519 209.336 862.195 224.848 910.803C270.35 1057.66 353.081 1190.04 464.768 1296.56C510.27 1340 560.943 1378.26 613.684 1411.36C620.923 1415.49 628.162 1404.12 620.923 1399.98C513.373 1332.76 419.266 1243.82 347.91 1139.36C304.477 1075.24 270.35 1004.92 245.531 931.487C228.984 881.845 217.609 832.203 205.199 781.527C184.516 694.654 164.868 604.678 188.653 515.737C190.721 506.429 177.277 502.292 175.209 510.566Z" fill="#231F20"/>
<path d="M215.541 824.964C210.37 774.288 210.37 722.578 220.712 671.902C230.019 624.328 246.565 571.584 279.657 533.318C301.374 508.497 328.262 500.224 362.389 502.292C387.208 503.326 412.027 510.566 431.676 525.044C451.324 539.523 464.768 561.242 474.076 583.994C490.622 626.397 509.236 667.765 528.885 708.099C533.021 716.372 544.397 709.133 540.26 700.859C521.646 661.559 503.031 622.26 487.519 580.891C479.246 558.139 465.802 536.421 448.222 520.908C429.608 504.36 404.788 494.018 379.969 490.916C344.808 485.745 307.579 488.847 280.692 513.668C245.531 545.729 226.916 595.37 214.507 639.841C197.961 699.825 195.892 762.912 202.097 823.93C203.131 833.237 216.575 833.237 215.541 824.964Z" fill="#231F20"/>
<path d="M21.1231 433C29.3962 388.529 43.8741 345.092 62.4886 303.724C83.1714 258.219 112.127 216.851 152.459 186.859C191.756 156.867 236.224 136.183 279.658 115.499C311.716 99.9858 347.911 79.3017 385.14 81.3701C428.574 83.4385 466.837 109.294 495.793 140.32C501.998 146.525 511.305 137.217 505.1 131.012C479.246 102.054 445.12 79.3017 406.857 71.028C368.594 62.7544 334.467 75.1648 299.306 91.7121C252.77 113.43 204.166 136.183 160.732 165.141C117.298 194.098 83.1714 232.364 59.3862 278.903C34.5669 326.477 16.9865 378.187 7.67925 430.931C6.64511 438.171 19.0548 442.308 21.1231 433Z" fill="#231F20"/>
<path d="M1499.94 749.467C1436.86 800.143 1390.32 868.4 1352.06 938.726C1310.69 1016.29 1275.53 1096.96 1248.65 1180.73C1233.13 1228.3 1220.72 1275.88 1209.35 1324.48C1207.28 1332.76 1220.72 1336.89 1222.79 1327.59C1241.41 1242.78 1267.26 1159.01 1300.35 1078.34C1332.41 1001.81 1369.64 924.247 1418.24 857.024C1444.1 820.827 1474.09 786.698 1509.25 758.774C1516.49 753.603 1507.18 743.261 1499.94 749.467Z" fill="#231F20"/>
<path d="M1769.85 1091.79C1864.99 1132.12 1978.75 1105.23 2044.93 1025.6C2078.02 986.299 2095.6 936.658 2103.88 885.982C2108.01 859.092 2110.08 833.237 2111.12 806.348C2112.15 781.527 2112.15 756.706 2109.05 731.885C2101.81 678.106 2079.06 627.43 2047 585.028C2041.83 577.789 2030.45 585.028 2035.62 592.267C2062.51 627.43 2082.16 666.73 2091.47 710.167C2102.84 757.74 2099.74 808.416 2094.57 855.99C2089.4 906.666 2078.02 957.342 2048.03 999.744C2022.18 1036.98 1984.95 1066.97 1942.55 1082.48C1887.74 1103.16 1827.76 1101.1 1773.99 1078.34C1765.71 1075.24 1761.58 1088.69 1769.85 1091.79Z" fill="#231F20"/>
<path d="M459.597 2536.57C545.431 2554.15 618.855 2612.07 656.084 2690.67C660.22 2698.94 671.596 2691.7 667.459 2683.43C629.196 2601.73 550.602 2540.71 462.7 2523.13C454.427 2522.09 450.29 2534.5 459.597 2536.57Z" fill="#231F20"/>
<path d="M1435.82 2561.39C1469.95 2510.72 1515.45 2468.32 1567.16 2437.29C1574.4 2433.15 1568.19 2420.74 1559.92 2425.91C1506.15 2459.01 1459.61 2502.44 1423.41 2555.19C1419.28 2562.43 1430.65 2568.63 1435.82 2561.39Z" fill="#231F20"/>
<path d="M1401.7 3135.38C1439.96 3119.86 1476.16 3098.14 1507.18 3070.22C1548.55 3031.96 1577.5 2982.31 1591.98 2928.54C1619.9 2824.08 1594.05 2709.28 1522.69 2628.62C1495.8 2597.59 1462.71 2572.77 1427.55 2553.12C1420.31 2548.98 1413.07 2560.36 1420.31 2564.49C1493.74 2603.79 1551.65 2669.98 1575.43 2750.65C1606.46 2852 1584.74 2967.83 1512.35 3046.43C1480.29 3080.56 1441 3106.42 1397.56 3122.97C1389.29 3126.07 1393.42 3138.48 1401.7 3135.38Z" fill="#231F20"/>
<path d="M1500.97 2618.28C1514.42 2619.31 1526.83 2619.31 1540.27 2619.31C1543.37 2619.31 1547.51 2616.21 1547.51 2612.07C1547.51 2608.97 1544.41 2604.83 1540.27 2604.83C1526.83 2605.86 1514.42 2604.83 1500.97 2603.8C1497.87 2603.8 1493.74 2606.9 1493.74 2611.04C1493.74 2615.17 1496.84 2618.28 1500.97 2618.28Z" fill="#231F20"/>
<path d="M1544.41 2667.92C1560.96 2667.92 1577.5 2667.92 1594.05 2667.92C1598.18 2667.92 1601.29 2664.81 1601.29 2660.68C1601.29 2656.54 1598.18 2653.44 1594.05 2653.44C1577.5 2653.44 1560.96 2653.44 1544.41 2653.44C1540.27 2653.44 1537.17 2656.54 1537.17 2660.68C1537.17 2664.81 1540.27 2667.92 1544.41 2667.92Z" fill="#231F20"/>
<path d="M1579.57 2741.35C1597.15 2740.31 1614.73 2739.28 1632.31 2736.17C1636.45 2736.17 1639.55 2733.07 1639.55 2728.93C1639.55 2725.83 1636.45 2721.7 1632.31 2721.7C1614.73 2723.76 1597.15 2725.83 1579.57 2726.87C1575.43 2726.87 1572.33 2729.97 1572.33 2734.11C1573.36 2738.24 1576.47 2742.38 1579.57 2741.35Z" fill="#231F20"/>
<path d="M1598.18 2817.88C1614.73 2817.88 1630.24 2816.84 1645.75 2812.7C1648.86 2811.67 1650.93 2807.53 1650.93 2804.43C1649.89 2800.29 1645.75 2799.26 1642.65 2799.26C1628.17 2802.36 1613.7 2804.43 1598.18 2803.4C1594.05 2803.4 1590.95 2806.5 1590.95 2810.64C1590.95 2814.77 1594.05 2817.88 1598.18 2817.88Z" fill="#231F20"/>
<path d="M1599.22 2894.41C1616.8 2893.37 1633.34 2895.44 1649.89 2900.61C1652.99 2901.65 1657.13 2899.58 1658.16 2895.44C1659.2 2891.31 1657.13 2888.2 1652.99 2887.17C1635.41 2882 1616.8 2878.89 1599.22 2880.96C1595.08 2880.96 1591.98 2884.07 1591.98 2888.2C1593.01 2891.31 1596.12 2894.41 1599.22 2894.41Z" fill="#231F20"/>
<path d="M1576.47 2963.7C1595.08 2971.97 1613.7 2981.28 1632.31 2989.55C1635.41 2991.62 1639.55 2990.59 1641.62 2987.49C1643.69 2984.38 1642.65 2980.25 1639.55 2978.18C1620.94 2969.9 1602.32 2960.6 1583.71 2952.32C1580.6 2950.25 1576.47 2951.29 1574.4 2954.39C1572.33 2957.49 1573.36 2962.66 1576.47 2963.7Z" fill="#231F20"/>
<path d="M1542.34 3031.96C1555.78 3043.33 1570.26 3052.64 1585.77 3059.88C1588.88 3060.91 1593.01 3060.91 1595.08 3057.81C1596.12 3054.71 1596.12 3050.57 1593.01 3048.5C1585.77 3045.4 1578.54 3041.26 1571.3 3037.13C1568.19 3035.06 1565.09 3032.99 1560.96 3030.92C1557.85 3028.85 1554.75 3026.79 1551.65 3023.68C1548.55 3021.61 1544.41 3020.58 1542.34 3023.68C1539.24 3024.72 1539.24 3028.85 1542.34 3031.96Z" fill="#231F20"/>
<path d="M1489.6 3083.67C1495.8 3090.91 1502.01 3098.15 1509.25 3104.35C1511.32 3107.45 1516.49 3107.45 1518.56 3104.35C1520.62 3101.25 1520.62 3097.11 1518.56 3095.04C1512.35 3087.8 1506.15 3080.56 1498.91 3074.36C1496.84 3071.26 1491.67 3071.26 1489.6 3074.36C1487.53 3077.46 1487.53 3081.6 1489.6 3083.67Z" fill="#231F20"/>
<path d="M962.189 2530.37C987.009 2530.37 1006.66 2550.02 1007.69 2575.87C1008.73 2616.21 1037.68 2645.16 1076.98 2645.16C1101.8 2646.2 1120.41 2664.81 1121.45 2689.64C1122.48 2712.39 1104.9 2733.07 1081.12 2736.17C1057.33 2739.28 1035.61 2722.73 1030.44 2698.94C1029.41 2691.7 1029.41 2684.46 1028.37 2677.22C1022.17 2645.16 994.248 2622.41 961.155 2621.38C936.336 2621.38 918.755 2603.8 915.653 2580.01C913.585 2558.29 928.063 2537.61 949.78 2531.4C954.95 2530.37 958.053 2530.37 962.189 2530.37Z" fill="#231F20"/>
<path d="M1190.73 2621.38C1165.91 2621.38 1145.23 2600.69 1145.23 2575.87C1145.23 2551.05 1165.91 2530.37 1191.77 2530.37C1216.59 2530.37 1237.27 2551.05 1237.27 2576.91C1236.24 2601.73 1215.55 2621.38 1190.73 2621.38Z" fill="#231F20"/>
<path d="M848.434 2645.16C873.253 2645.16 893.936 2665.85 893.936 2691.7C893.936 2716.52 873.253 2737.21 847.4 2736.17C822.58 2736.17 801.898 2715.49 802.932 2689.63C801.898 2664.81 822.58 2644.13 848.434 2645.16Z" fill="#231F20"/>
<path d="M334.467 1894.33C364.167 1894.33 388.243 1848.49 388.243 1791.94C388.243 1735.4 364.167 1689.56 334.467 1689.56C304.768 1689.56 280.692 1735.4 280.692 1791.94C280.692 1848.49 304.768 1894.33 334.467 1894.33Z" fill="#DCD2FE"/>
<path d="M333.433 1904.67C297.238 1904.67 269.316 1855.03 269.316 1791.95C269.316 1728.86 297.238 1679.22 333.433 1679.22C369.628 1679.22 397.549 1728.86 397.549 1791.95C397.549 1855.03 369.628 1904.67 333.433 1904.67ZM333.433 1700.94C312.75 1700.94 289.999 1739.2 289.999 1792.98C289.999 1846.76 312.75 1885.02 333.433 1885.02C354.116 1885.02 376.867 1846.76 376.867 1792.98C377.901 1738.17 354.116 1700.94 333.433 1700.94Z" fill="#231F20"/>
<path d="M307.579 1849.86C325.856 1849.86 340.672 1822.08 340.672 1787.81C340.672 1753.54 325.856 1725.76 307.579 1725.76C289.303 1725.76 274.487 1753.54 274.487 1787.81C274.487 1822.08 289.303 1849.86 307.579 1849.86Z" fill="#DCD2FE"/>
<path d="M307.579 1860.2C282.76 1860.2 264.146 1829.18 264.146 1787.81C264.146 1746.44 282.76 1715.41 307.579 1715.41C332.399 1715.41 351.013 1746.44 351.013 1787.81C351.013 1829.18 332.399 1860.2 307.579 1860.2ZM307.579 1736.1C298.272 1736.1 284.828 1755.75 284.828 1787.81C284.828 1819.87 298.272 1839.52 307.579 1839.52C316.887 1839.52 330.33 1818.83 330.33 1787.81C330.33 1756.78 316.887 1736.1 307.579 1736.1Z" fill="#231F20"/>
<path d="M347.911 1891.23C363.423 1925.36 389.276 1956.38 415.13 1984.31C440.983 2011.2 468.905 2036.02 498.895 2056.7C563.011 2102.21 637.469 2134.27 713.996 2153.92C759.498 2165.29 806.034 2171.5 852.57 2174.6C866.014 2175.63 866.014 2154.95 852.57 2153.92C772.942 2148.75 692.279 2132.2 618.855 2100.14C552.67 2071.18 490.622 2030.85 439.949 1980.17C410.993 1951.21 382.037 1918.12 365.491 1880.89C363.423 1875.72 356.184 1874.68 351.013 1876.75C346.876 1879.85 345.842 1886.06 347.911 1891.23Z" fill="#231F20"/>
<path d="M934.267 2195.29H886.697C870.15 2195.29 855.672 2181.84 855.672 2164.26C855.672 2147.71 869.116 2133.23 886.697 2133.23H934.267C950.813 2133.23 965.291 2146.68 965.291 2164.26C965.291 2181.84 951.847 2195.29 934.267 2195.29Z" fill="#9779FC"/>
<path d="M934.267 2205.63H886.697C863.946 2205.63 845.331 2187.01 845.331 2164.26C845.331 2141.51 863.946 2122.89 886.697 2122.89H934.267C957.018 2122.89 975.633 2141.51 975.633 2164.26C975.633 2187.01 957.018 2205.63 934.267 2205.63ZM887.731 2144.61C876.356 2144.61 867.048 2153.92 867.048 2165.29C867.048 2176.67 876.356 2185.98 887.731 2185.98H935.301C946.677 2185.98 955.984 2176.67 955.984 2165.29C955.984 2153.92 946.677 2144.61 935.301 2144.61H887.731Z" fill="#231F20"/>
</g>
<defs>
<clipPath id="clip0_810_59">
<rect width="2192.37" height="3376.68" fill="white" transform="translate(0.440063 0.702148)"/>
</clipPath>
</defs>
</svg>
